<?xml version="1.0" encoding="utf-8"?>
<!-- Generator: Adobe Illustrator 16.0.0, SVG Export Plug-In . SVG Version: 6.00 Build 0)  -->
<!DOCTYPE svg PUBLIC "-//W3C//DTD SVG 1.1//EN" "http://www.w3.org/Graphics/SVG/1.1/DTD/svg11.dtd">
<svg version="1.1"
	 id="svg2" xmlns:dc="http://purl.org/dc/elements/1.1/" xmlns:cc="http://creativecommons.org/ns#" xmlns:rdf="http://www.w3.org/1999/02/22-rdf-syntax-ns#" xmlns:svg="http://www.w3.org/2000/svg"
	 xmlns="http://www.w3.org/2000/svg" xmlns:xlink="http://www.w3.org/1999/xlink" x="0px" y="0px" width="744.571px"
	 height="248.191px" viewBox="0 0 744.571 248.191" enable-background="new 0 0 744.571 248.191" xml:space="preserve">
<g id="layer1" transform="translate(-0.57142913,-313.50504)">
	<g id="g3022" transform="translate(0.50507624,0.4847711)">
		<path id="path3036" fill="#F7A6A9" d="M233.701,553.912l-2.709-1.41l-1.456-2.145l-1.457-2.143v-1.303v-1.303h1.676h1.677
			l1.205,1.949l1.205,1.949l1.945,0.924l1.945,0.922h1.809h1.809l1.551-0.811c0.853-0.445,2.299-1.597,3.213-2.559l1.662-1.748
			l0.257-2.755l0.257-2.756l-1.348-2.011l-1.348-2.012l-6.566-3.307c-3.611-1.818-7.161-3.697-7.889-4.174l-1.322-0.866
			l-1.157-2.267l-1.156-2.268v-3.492v-3.492l1.097-2.133c1.282-2.493,3.615-4.783,6.2-6.087l1.839-0.927h3.65h3.65l2.699,1.711
			l2.699,1.712l1.146,1.879c0.63,1.034,1.147,2.316,1.148,2.851l0.002,0.972l-0.607,0.375l-0.607,0.376l-1.266-0.318l-1.266-0.318
			l-1.003-1.697l-1.002-1.697l-2.633-1.274l-2.633-1.274l-2.221,0.666l-2.222,0.665l-1.739,1.464l-1.739,1.463l-0.659,2.2
			l-0.659,2.2l0.414,2.205l0.414,2.205l2.128,2.016l2.128,2.016l4.57,1.969c2.514,1.083,5.521,2.634,6.683,3.447l2.113,1.479
			l1.032,1.723l1.032,1.725l0.008,4.414l0.008,4.413l-1.738,2.48l-1.737,2.48l-2.851,1.566l-2.851,1.566l-3.16-0.013l-3.16-0.014
			L233.701,553.912L233.701,553.912z M376.604,554.129L373.743,553l-2.348-1.924l-2.348-1.924l-1.973-3.639l-1.973-3.639
			l-0.177-16.193l-0.176-16.191l1.068-0.572l1.069-0.572l0.67,0.414l0.67,0.414l0.166,15.201l0.165,15.201l1.215,2.637l1.215,2.637
			l2.093,2.094c1.15,1.15,2.93,2.546,3.951,3.1l1.857,1.008l4.596,0.008l4.598,0.008l2.584-1.52l2.586-1.521l1.914-2.384
			l1.916-2.383l0.525-1.838l0.527-1.838v-15.361v-15.361l1.404-0.352l1.404-0.353l0.607,0.375l0.605,0.376l-0.043,16.195
			l-0.043,16.196l-0.676,1.759c-0.371,0.968-1.41,2.906-2.311,4.309l-1.637,2.551l-2.672,1.828l-2.672,1.829l-2.586,0.892
			l-2.586,0.893l-3.734-0.051l-3.734-0.051L376.604,554.129L376.604,554.129z M160.96,554.287l-0.701-0.434v-22.32v-22.32
			l0.701-0.434l0.701-0.434l1.036,0.555l1.037,0.555v22.078v22.078l-1.037,0.555l-1.036,0.555L160.96,554.287L160.96,554.287z
			 M178.786,554.112l-0.689-0.689v-21.934v-21.934l0.838-0.695l0.838-0.695l1.721,0.377l1.721,0.379l13.097,19.637l13.096,19.638
			l0.151-19.513l0.151-19.513l0.509-0.509l0.509-0.509l1.207,0.383l1.207,0.384v22.643v22.645l-1.479,0.371l-1.479,0.371
			l-1.32-0.602l-1.319-0.602l-10.887-16.851c-5.988-9.269-11.604-18.079-12.481-19.579c-0.876-1.502-1.704-2.729-1.839-2.729
			c-0.135,0-0.227,8.794-0.205,19.543l0.041,19.544l-0.349,0.564l-0.349,0.564h-1h-1L178.786,554.112L178.786,554.112z
			 M277.702,553.796c-0.139-0.554-0.308-9.839-0.377-20.636l-0.125-19.629l-0.477-0.479l-0.476-0.479l-6.986-0.287L262.275,512
			l-0.197-1.033l-0.197-1.033l0.692-0.834l0.692-0.834l15.298,0.008l15.298,0.008l1.324,0.354l1.324,0.354l-0.175,1.505L296.16,512
			l-6.607,0.287l-6.607,0.287l-0.718,0.465l-0.718,0.465v19.959v19.959l-0.689,0.689l-0.689,0.689h-1.088h-1.088L277.702,553.796
			L277.702,553.796z M307.461,554.287l-0.701-0.434v-22.32v-22.32l0.701-0.434l0.701-0.434l1.037,0.555l1.036,0.555v22.078v22.078
			l-1.036,0.555l-1.037,0.555L307.461,554.287L307.461,554.287z M336.768,554.291l-0.694-0.429l-0.136-20.234l-0.137-20.233
			l-0.861-0.545l-0.862-0.545l-6.75-0.009c-3.713-0.005-6.751-0.117-6.751-0.249c0-0.133-0.144-0.616-0.32-1.075l-0.32-0.835
			l0.937-0.936l0.936-0.936h15.717h15.717l0.903,0.902c1.03,1.029,1.021,0.994,0.554,2.21l-0.349,0.909h-6.296h-6.296l-1.111,0.594
			l-1.111,0.596v20.067v20.067l-1.036,0.555l-1.036,0.555L336.768,554.291L336.768,554.291z M427.819,554.418l-0.383-0.383v-20.229
			v-20.23l-0.754-0.625l-0.754-0.625l-6.852-0.164L412.225,512l-0.197-1.033l-0.199-1.033l0.693-0.834l0.691-0.834h16.234h16.232
			l0.691,0.834l0.693,0.834l-0.197,1.033L446.67,512l-6.889,0.287l-6.887,0.287l-0.719,0.465l-0.719,0.465v19.959v19.959
			l-0.689,0.689C430.018,554.864,428.428,555.028,427.819,554.418L427.819,554.418z M457.454,554.42l-0.717-0.289v-22.584v-22.584
			l0.908-0.35l0.908-0.348h12.811h12.809l0.691,0.834l0.693,0.834l-0.197,1.033L485.161,512l-11.482,0.287l-11.484,0.287
			l-0.717,0.465l-0.719,0.465v7.032v7.032l0.689,0.689l0.689,0.689h7.6h7.6l0.936,0.936l0.938,0.936l-0.32,0.836
			c-0.178,0.459-0.32,0.942-0.32,1.074c0,0.133-3.508,0.24-7.795,0.24h-7.793l-1.111,0.596l-1.111,0.594v7.702v7.702l0.719,0.465
			l0.717,0.465l11.484,0.287l11.482,0.287l0.199,1.033l0.197,1.033l-0.693,0.834l-0.691,0.834l-13-0.045
			C464.022,554.731,457.85,554.58,457.454,554.42L457.454,554.42z M58.017,500.078l-1.138-1.867l-0.002-17.902l-0.002-17.902
			l1.768-1.488l1.768-1.486h17.976h17.976l1.514,1.19l1.514,1.19v18.817v18.817l-1.33,1.249l-1.33,1.249H77.942H59.155
			L58.017,500.078L58.017,500.078z M160.282,497.781c-0.009-1.433-0.014-76.574-0.005-77.272l0.009-0.718h3.887h3.887l14.642,22.421
			c8.052,12.331,17.485,26.732,20.96,32.002l6.32,9.581l0.148-32.002l0.148-32.002h4.017h4.017l0.01,0.718
			c0.009,0.699,0.005,75.84-0.005,77.272l-0.005,0.718h-4.203h-4.202l-4.725-7.324c-2.599-4.029-7.253-11.203-10.343-15.943
			c-15.121-23.197-20.099-30.932-23.445-36.434l-3.64-5.984l-0.081,2.538c-0.044,1.396-0.014,15.617,0.068,31.601l0.149,29.064
			l-0.394,1.242l-0.394,1.24h-3.408h-3.409L160.282,497.781L160.282,497.781z M236.98,497.205l-0.313-1.292l0.158-37.918
			l0.159-37.918h23.842h23.842l0.182,2.539c0.1,1.397,0.03,3.142-0.155,3.878l-0.336,1.339l-19.091,0.009l-19.092,0.009
			l-0.862,0.545l-0.862,0.545v12.037v12.039l0.478,0.479l0.478,0.479l14.916,0.178l14.916,0.18l-0.169,3.842l-0.169,3.844
			l-14.747,0.287l-14.747,0.287l-0.478,0.479l-0.478,0.479v12.9v12.899l0.862,0.544l0.862,0.545l19.041,0.01l19.041,0.009
			l0.349,0.909c0.192,0.5,0.349,1.9,0.349,3.112s-0.157,2.613-0.349,3.112l-0.349,0.909h-23.482h-23.483l-0.313-1.292V497.205z
			 M321.655,496.938c-0.348-0.879-1.472-3.926-2.499-6.77c-6.373-17.646-8.062-22.283-9.514-26.141
			c-0.893-2.369-2.451-6.635-3.463-9.479c-1.012-2.844-2.563-7.109-3.447-9.479c-0.884-2.369-2.437-6.635-3.451-9.479
			c-1.014-2.844-2.697-7.354-3.74-10.023l-1.896-4.853l0.285-0.461l0.285-0.461h3.943h3.943l0.674,2.154
			c0.371,1.185,1.459,4.223,2.419,6.75c2.506,6.604,2.943,7.791,5.918,16.086c1.474,4.107,3.027,8.373,3.453,9.479
			s2.319,6.276,4.208,11.49s4.396,12.124,5.573,15.354l2.14,5.875l1.044,0.945l1.045,0.945l0.8-0.307l0.801-0.309l0.6-2.203
			c0.33-1.213,1.262-4.014,2.069-6.227c2.35-6.428,4.746-12.902,6.382-17.234l1.518-4.021l-0.255-1.15
			c-0.141-0.631-1.152-3.604-2.249-6.605c-1.098-3.002-3.35-9.207-5.006-13.789c-1.656-4.582-3.649-9.971-4.429-11.977l-1.418-3.646
			l0.31-0.807l0.31-0.807h3.69h3.689l2.976,8.187c1.637,4.503,3.781,10.323,4.766,12.934l1.791,4.748l0.525-0.525
			c0.289-0.289,1.939-4.623,3.669-9.631s3.666-10.592,4.304-12.409l1.159-3.303h4.256h4.257v0.4c0,0.338-4.596,12.977-7.165,19.708
			c-0.422,1.105-1.988,5.344-3.48,9.416l-2.712,7.406v1.247v1.247l2.714,7.434c1.493,4.088,3.299,8.984,4.012,10.881
			c0.714,1.895,1.876,5.044,2.583,6.996l1.286,3.551l0.79,0.303l0.79,0.305l0.822-0.823l0.822-0.822l1.535-4.181
			c0.845-2.299,1.879-5.084,2.299-6.19s1.969-5.372,3.442-9.479c1.473-4.107,3.025-8.373,3.447-9.479s1.975-5.372,3.447-9.479
			s3.025-8.373,3.447-9.479s1.971-5.372,3.439-9.479s2.877-7.856,3.131-8.331l0.461-0.862l3.748-0.168l3.746-0.168l0.279,0.743
			l0.281,0.743l-3.312,8.905c-3.121,8.388-5.174,14.015-13.736,37.63c-1.949,5.372-3.891,10.672-4.316,11.777
			c-1.336,3.471-5.94,16.313-6.333,17.666l-0.375,1.293h-6.211h-6.212l-0.617-1.58c-1.001-2.559-6.813-18.637-7.53-20.826
			c-0.361-1.105-1.107-2.854-1.657-3.885l-1-1.875l-2.187,5.896c-1.202,3.242-3.526,9.516-5.166,13.939l-2.98,8.043l-6.169,0.164
			l-6.168,0.162L321.655,496.938L321.655,496.938z M405.438,498.14l-0.408-0.407v-38.971V419.79h4.238h4.238l0.58,0.718
			c0.318,0.395,2.135,4.338,4.039,8.761c1.904,4.424,5.963,13.731,9.02,20.682c3.057,6.952,7.896,18.004,10.754,24.561l5.197,11.922
			h0.986h0.986l0.877-1.006c0.484-0.553,2.568-4.883,4.633-9.623c2.066-4.739,6.143-14.047,9.059-20.682
			c2.916-6.637,7.559-17.236,10.314-23.556l5.014-11.49l4.387-0.168l4.387-0.167v39.405v39.404l-3.879-0.17l-3.877-0.17
			l-0.303-26.715c-0.164-14.693-0.359-26.779-0.43-26.858c-0.072-0.079-0.748-0.144-1.504-0.144h-1.373l-0.363,1.441
			c-0.318,1.273-9.02,21.699-13.213,31.019c-0.852,1.896-3.281,7.454-5.398,12.353l-3.848,8.904l-4.941,0.165l-4.943,0.165
			l-5.338-12.23c-12.471-28.574-17.68-40.688-17.969-41.791l-0.307-1.174h-0.881h-0.883l-0.465,0.717l-0.465,0.719l-0.287,26.715
			l-0.287,26.715l-3.471,0.168l-3.471,0.168L405.438,498.14L405.438,498.14z M502.471,497.59l-0.348-0.908v-37.537v-37.537
			l0.348-0.909l0.35-0.909h23.432h23.432l0.35,0.909c0.191,0.5,0.35,1.9,0.35,3.113s-0.158,2.613-0.35,3.113l-0.35,0.909
			l-19.041,0.009l-19.041,0.009l-0.861,0.545l-0.861,0.544v12.038v12.038l0.477,0.479l0.479,0.479l14.916,0.17l14.916,0.172
			l-0.168,3.85l-0.17,3.852l-14.748,0.287l-14.746,0.287l-0.479,0.479l-0.477,0.479v12.9v12.899l0.861,0.544l0.861,0.545
			l19.041,0.01l19.041,0.009l0.35,0.909c0.191,0.5,0.35,1.9,0.35,3.112s-0.158,2.613-0.35,3.112l-0.35,0.91h-23.432h-23.432
			L502.471,497.59L502.471,497.59z M569.149,498.115l-0.383-0.383v-38.994v-38.995l17.955,0.214l17.953,0.215l3.16,0.716l3.16,0.717
			l3.445,1.655l3.447,1.656l4.006,3.038l4.004,3.038l2.783,3.447l2.783,3.447l1.922,4.021l1.924,4.021l0.912,3.638l0.912,3.638
			v5.992v5.994l-1.15,4.158l-1.15,4.158l-1.768,3.446l-1.77,3.447l-2.848,3.6l-2.848,3.601l-3.568,2.643l-3.568,2.643l-4.021,1.879
			l-4.023,1.877l-4.652,0.928l-4.654,0.928h-15.789h-15.789l-0.383-0.383H569.149z M608.788,488.615
			c6.289-2.63,11.971-7.399,15.98-13.415l1.938-2.903l1.248-3.703l1.246-3.704l-0.197-6.894l-0.199-6.894l-2.393-4.982l-2.395-4.981
			l-3.998-4.071l-4-4.071l-5.098-2.438l-5.098-2.438l-13.684-0.182l-13.684-0.182l-0.822,0.683l-0.822,0.683V459.1v29.977
			l0.717,0.729l0.719,0.729l13.5-0.219l13.502-0.22L608.788,488.615L608.788,488.615z M650.696,497.59l-0.348-0.908l0.008-37.729
			l0.01-37.727l0.475-0.75l0.477-0.75l3.395,0.175l3.393,0.175l0.158,37.918l0.158,37.918l-0.312,1.292l-0.312,1.293h-3.375h-3.375
			l-0.348-0.908H650.696z M667.284,497.52c0.23-0.567,0.615-1.678,0.855-2.469c0.508-1.678,6.215-17.303,8.602-23.555
			c0.904-2.369,2.85-7.67,4.32-11.777s3.029-8.373,3.465-9.479s1.982-5.372,3.439-9.479c1.457-4.108,2.982-8.245,3.389-9.192
			s1.471-3.994,2.363-6.769l1.623-5.045l6.332,0.162l6.332,0.162l1.102,2.873c0.605,1.58,1.451,3.777,1.875,4.883
			c0.426,1.106,1.971,5.372,3.432,9.479c1.461,4.107,3.012,8.373,3.447,9.479c0.434,1.106,1.986,5.372,3.447,9.479
			s3.01,8.373,3.443,9.479c0.432,1.106,2.764,7.44,5.178,14.075c2.416,6.637,4.785,13.004,5.264,14.149l0.871,2.085l-0.207,1.075
			l-0.205,1.075l-3.842,0.17l-3.842,0.168l-0.857-2.754c-0.473-1.516-1.611-4.817-2.533-7.339l-1.674-4.585l-1.375-0.385
			l-1.377-0.385l-18.705-0.059l-18.705-0.057l-1.012,0.74l-1.012,0.74l-2.729,6.871l-2.727,6.873l-4.199,0.17l-4.197,0.17
			L667.284,497.52L667.284,497.52z M719.002,473.651c-0.404-1.434-4.373-12.521-9.514-26.57c-1.85-5.057-3.928-10.938-4.617-13.071
			l-1.256-3.878h-1.6h-1.602l-1.84,4.739c-1.012,2.607-2.475,6.549-3.25,8.762c-1.219,3.47-9.256,25.162-11.018,29.73l-0.609,1.58
			h17.834h17.836L719.002,473.651L719.002,473.651z M11.587,454.08l-1.249-1.33v-18.736v-18.736l1.514-1.191l1.514-1.191h18.2
			h18.199l1.544,1.612l1.544,1.611v18.125v18.125l-1.409,1.521l-1.409,1.521H31.435H12.836L11.587,454.08L11.587,454.08z
			 M58.554,453.928l-1.393-1.481l-0.167-17.98l-0.167-17.98l1.51-1.795l1.51-1.795H77.95h18.101l1.668,1.188l1.669,1.188v18.82
			v18.82l-1.33,1.248l-1.33,1.25H78.338H59.947L58.554,453.928z M105.453,454.133l-0.895-1.277v-18.831v-18.831l1.149-1.149
			l1.149-1.149h18.321h18.321l1.211,1.005l1.211,1.006l0.03,19.222l0.03,19.222l-1.321,1.017l-1.322,1.018l-18.496,0.012
			l-18.496,0.014L105.453,454.133L105.453,454.133z M58.417,407.263l-1.543-1.611V387.58v-18.071l1.459-1.574l1.459-1.574h18.548
			H96.89l1.249,1.33l1.25,1.33v18.736v18.737l-1.514,1.19l-1.514,1.191H78.161h-18.2L58.417,407.263z M105.816,407.703l-1.257-1.171
			v-18.809v-18.809l0.895-1.277l0.894-1.277h18.639h18.639l1.149,1.149l1.149,1.149v19.181v19.181l-1.954,0.927l-1.954,0.927
			h-17.471h-17.471L105.816,407.703L105.816,407.703z M152.738,407.776l-1.356-1.099v-19.061v-19.06l1.356-1.099l1.356-1.098h18.212
			h18.212l1.257,1.171l1.258,1.171v18.676v18.675l-1.411,1.41l-1.41,1.41h-18.06h-18.06L152.738,407.776L152.738,407.776z
			 M106.155,361.339l-1.563-0.969l-0.338-2.319l-0.339-2.319l0.178-16.745l0.178-16.745l1.094-1.208l1.095-1.208h18.781h18.781
			l0.951,1.051l0.951,1.05v19.33v19.33l-1.695,0.876l-1.695,0.876l-17.408-0.015l-17.408-0.016L106.155,361.339z"/>
		<path id="path3034" fill="#B7B6B6" d="M233.701,553.912l-2.709-1.41l-1.456-2.145l-1.457-2.143v-1.303v-1.303h1.676h1.677
			l1.205,1.949l1.205,1.949l1.945,0.924l1.945,0.922h1.809h1.809l1.551-0.811c0.853-0.445,2.299-1.597,3.213-2.559l1.662-1.748
			l0.257-2.755l0.257-2.756l-1.348-2.011l-1.348-2.012l-6.566-3.307c-3.611-1.818-7.161-3.697-7.889-4.174l-1.322-0.866
			l-1.157-2.267l-1.156-2.268v-3.492v-3.492l1.097-2.133c1.282-2.493,3.615-4.783,6.2-6.087l1.839-0.927h3.65h3.65l2.699,1.711
			l2.699,1.712l1.146,1.879c0.63,1.034,1.147,2.316,1.148,2.851l0.002,0.972l-0.607,0.375l-0.607,0.376l-1.266-0.318l-1.266-0.318
			l-1.003-1.697l-1.002-1.697l-2.633-1.274l-2.633-1.274l-2.221,0.666l-2.222,0.665l-1.739,1.464l-1.739,1.463l-0.659,2.2
			l-0.659,2.2l0.414,2.205l0.414,2.205l2.128,2.016l2.128,2.016l4.57,1.969c2.514,1.083,5.521,2.634,6.683,3.447l2.113,1.479
			l1.032,1.723l1.032,1.725l0.008,4.414l0.008,4.413l-1.738,2.48l-1.737,2.48l-2.851,1.566l-2.851,1.566l-3.16-0.013l-3.16-0.014
			L233.701,553.912L233.701,553.912z M376.604,554.129L373.743,553l-2.348-1.924l-2.348-1.924l-1.973-3.639l-1.973-3.639
			l-0.177-16.193l-0.176-16.191l1.068-0.572l1.069-0.572l0.67,0.414l0.67,0.414l0.166,15.201l0.165,15.201l1.215,2.637l1.215,2.637
			l2.093,2.094c1.15,1.15,2.93,2.546,3.951,3.1l1.857,1.008l4.596,0.008l4.598,0.008l2.584-1.52l2.586-1.521l1.914-2.384
			l1.916-2.383l0.525-1.838l0.527-1.838v-15.361v-15.361l1.404-0.352l1.404-0.353l0.607,0.375l0.605,0.376l-0.043,16.195
			l-0.043,16.196l-0.676,1.759c-0.371,0.968-1.41,2.906-2.311,4.309l-1.637,2.551l-2.672,1.828l-2.672,1.829l-2.586,0.892
			l-2.586,0.893l-3.734-0.051l-3.734-0.051L376.604,554.129L376.604,554.129z M160.96,554.287l-0.701-0.434v-22.32v-22.32
			l0.701-0.434l0.701-0.434l1.036,0.555l1.037,0.555v22.078v22.078l-1.037,0.555l-1.036,0.555L160.96,554.287L160.96,554.287z
			 M178.786,554.112l-0.689-0.689v-21.934v-21.934l0.838-0.695l0.838-0.695l1.721,0.377l1.721,0.379l13.097,19.637l13.096,19.638
			l0.151-19.513l0.151-19.513l0.509-0.509l0.509-0.509l1.207,0.383l1.207,0.384v22.643v22.645l-1.479,0.371l-1.479,0.371
			l-1.32-0.602l-1.319-0.602l-10.887-16.851c-5.988-9.269-11.604-18.079-12.481-19.579c-0.876-1.502-1.704-2.729-1.839-2.729
			c-0.135,0-0.227,8.794-0.205,19.543l0.041,19.544l-0.349,0.564l-0.349,0.564h-1h-1L178.786,554.112L178.786,554.112z
			 M277.702,553.796c-0.139-0.554-0.308-9.839-0.377-20.636l-0.125-19.629l-0.477-0.479l-0.476-0.479l-6.986-0.287L262.275,512
			l-0.197-1.033l-0.197-1.033l0.692-0.834l0.692-0.834l15.298,0.008l15.298,0.008l1.324,0.354l1.324,0.354l-0.175,1.505L296.16,512
			l-6.607,0.287l-6.607,0.287l-0.718,0.465l-0.718,0.465v19.959v19.959l-0.689,0.689l-0.689,0.689h-1.088h-1.088L277.702,553.796
			L277.702,553.796z M307.461,554.287l-0.701-0.434v-22.32v-22.32l0.701-0.434l0.701-0.434l1.037,0.555l1.036,0.555v22.078v22.078
			l-1.036,0.555l-1.037,0.555L307.461,554.287L307.461,554.287z M336.768,554.291l-0.694-0.429l-0.136-20.234l-0.137-20.233
			l-0.861-0.545l-0.862-0.545l-6.75-0.009c-3.713-0.005-6.751-0.117-6.751-0.249c0-0.133-0.144-0.616-0.32-1.075l-0.32-0.835
			l0.937-0.936l0.936-0.936h15.717h15.717l0.903,0.902c1.03,1.029,1.021,0.994,0.554,2.21l-0.349,0.909h-6.296h-6.296l-1.111,0.594
			l-1.111,0.596v20.067v20.067l-1.036,0.555l-1.036,0.555L336.768,554.291L336.768,554.291z M427.819,554.418l-0.383-0.383v-20.229
			v-20.23l-0.754-0.625l-0.754-0.625l-6.852-0.164L412.225,512l-0.197-1.033l-0.199-1.033l0.693-0.834l0.691-0.834h16.234h16.232
			l0.691,0.834l0.693,0.834l-0.197,1.033L446.67,512l-6.889,0.287l-6.887,0.287l-0.719,0.465l-0.719,0.465v19.959v19.959
			l-0.689,0.689C430.018,554.864,428.428,555.028,427.819,554.418L427.819,554.418z M457.454,554.42l-0.717-0.289v-22.584v-22.584
			l0.908-0.35l0.908-0.348h12.811h12.809l0.691,0.834l0.693,0.834l-0.197,1.033L485.161,512l-11.482,0.287l-11.484,0.287
			l-0.717,0.465l-0.719,0.465v7.032v7.032l0.689,0.689l0.689,0.689h7.6h7.6l0.936,0.936l0.938,0.936l-0.32,0.836
			c-0.178,0.459-0.32,0.942-0.32,1.074c0,0.133-3.508,0.24-7.795,0.24h-7.793l-1.111,0.596l-1.111,0.594v7.702v7.702l0.719,0.465
			l0.717,0.465l11.484,0.287l11.482,0.287l0.199,1.033l0.197,1.033l-0.693,0.834l-0.691,0.834l-13-0.045
			C464.022,554.731,457.85,554.58,457.454,554.42L457.454,554.42z M58.166,500.039l-1.292-1.899v-17.382v-17.381l0.591-1.105
			l0.592-1.105l1.678-0.867l1.678-0.867l17.12,0.002l17.121,0.002l1.867,1.139l1.867,1.138v18.868v18.867l-1.33,1.248l-1.33,1.25
			l-18.635-0.004l-18.634-0.004L58.166,500.039L58.166,500.039z M160.282,497.781c-0.009-1.433-0.014-76.574-0.005-77.272
			l0.009-0.718h3.887h3.887l14.642,22.421c8.052,12.331,17.485,26.732,20.96,32.002l6.32,9.581l0.148-32.002l0.148-32.002h4.017
			h4.017l0.01,0.718c0.009,0.699,0.005,75.84-0.005,77.272l-0.005,0.718h-4.203h-4.202l-4.725-7.324
			c-2.599-4.029-7.253-11.203-10.343-15.943c-15.121-23.197-20.099-30.932-23.445-36.434l-3.64-5.984l-0.081,2.538
			c-0.044,1.396-0.014,15.617,0.068,31.601l0.149,29.064l-0.394,1.242l-0.394,1.24h-3.408h-3.409L160.282,497.781L160.282,497.781z
			 M236.98,497.205l-0.313-1.292l0.158-37.918l0.159-37.918h23.842h23.842l0.182,2.539c0.1,1.397,0.03,3.142-0.155,3.878
			l-0.336,1.339l-19.091,0.009l-19.092,0.009l-0.862,0.545l-0.862,0.545v12.037v12.039l0.478,0.479l0.478,0.479l14.916,0.178
			l14.916,0.18l-0.169,3.842l-0.169,3.844l-14.747,0.287l-14.747,0.287l-0.478,0.479l-0.478,0.479v12.9v12.899l0.862,0.544
			l0.862,0.545l19.041,0.01l19.041,0.009l0.349,0.909c0.192,0.5,0.349,1.9,0.349,3.112s-0.157,2.613-0.349,3.112l-0.349,0.909
			h-23.482h-23.483l-0.313-1.292V497.205z M321.655,496.938c-0.348-0.879-1.472-3.926-2.499-6.77
			c-6.373-17.646-8.062-22.283-9.514-26.141c-0.893-2.369-2.451-6.635-3.463-9.479c-1.012-2.844-2.563-7.109-3.447-9.479
			c-0.884-2.369-2.437-6.635-3.451-9.479c-1.014-2.844-2.697-7.354-3.74-10.023l-1.896-4.853l0.285-0.461l0.285-0.461h3.943h3.943
			l0.674,2.154c0.371,1.185,1.459,4.223,2.419,6.75c2.506,6.604,2.943,7.791,5.918,16.086c1.474,4.107,3.027,8.373,3.453,9.479
			s2.319,6.276,4.208,11.49s4.396,12.124,5.573,15.354l2.14,5.875l1.044,0.945l1.045,0.945l0.8-0.307l0.801-0.309l0.6-2.203
			c0.33-1.213,1.262-4.014,2.069-6.227c2.35-6.428,4.746-12.902,6.382-17.234l1.518-4.021l-0.255-1.15
			c-0.141-0.631-1.152-3.604-2.249-6.605c-1.098-3.002-3.35-9.207-5.006-13.789c-1.656-4.582-3.649-9.971-4.429-11.977l-1.418-3.646
			l0.31-0.807l0.31-0.807h3.69h3.689l2.976,8.187c1.637,4.503,3.781,10.323,4.766,12.934l1.791,4.748l0.525-0.525
			c0.289-0.289,1.939-4.623,3.669-9.631s3.666-10.592,4.304-12.409l1.159-3.303h4.256h4.257v0.4c0,0.338-4.596,12.977-7.165,19.708
			c-0.422,1.105-1.988,5.344-3.48,9.416l-2.712,7.406v1.247v1.247l2.714,7.434c1.493,4.088,3.299,8.984,4.012,10.881
			c0.714,1.895,1.876,5.044,2.583,6.996l1.286,3.551l0.79,0.303l0.79,0.305l0.822-0.823l0.822-0.822l1.535-4.181
			c0.845-2.299,1.879-5.084,2.299-6.19s1.969-5.372,3.442-9.479c1.473-4.107,3.025-8.373,3.447-9.479s1.975-5.372,3.447-9.479
			s3.025-8.373,3.447-9.479s1.971-5.372,3.439-9.479s2.877-7.856,3.131-8.331l0.461-0.862l3.748-0.168l3.746-0.168l0.279,0.743
			l0.281,0.743l-3.312,8.905c-3.121,8.388-5.174,14.015-13.736,37.63c-1.949,5.372-3.891,10.672-4.316,11.777
			c-1.336,3.471-5.94,16.313-6.333,17.666l-0.375,1.293h-6.211h-6.212l-0.617-1.58c-1.001-2.559-6.813-18.637-7.53-20.826
			c-0.361-1.105-1.107-2.854-1.657-3.885l-1-1.875l-2.187,5.896c-1.202,3.242-3.526,9.516-5.166,13.939l-2.98,8.043l-6.169,0.164
			l-6.168,0.162L321.655,496.938L321.655,496.938z M405.305,497.809c-0.156-0.41-0.219-18.068-0.137-39.238l0.148-38.493h4.246
			h4.246l0.475,0.862c0.262,0.474,3.625,8.101,7.473,16.948c6.568,15.094,14.508,33.246,19.076,43.609l2.002,4.541l0.979,0.548
			l0.98,0.548l0.828-0.828l0.83-0.83l6.049-13.74c3.328-7.557,9.539-21.754,13.801-31.549c4.262-9.796,8.039-18.402,8.393-19.126
			l0.646-1.316l4.055,0.167l4.057,0.167l0.146,39.237l0.148,39.236l-3.883-0.17l-3.881-0.17l-0.287-26.715l-0.287-26.715
			l-1.543-0.178l-1.545-0.179l-0.535,1.901c-0.293,1.047-1.578,4.229-2.854,7.072s-4.457,10.084-7.07,16.087
			c-2.613,6.004-6.5,14.923-8.637,19.821l-3.885,8.904l-4.545,0.166l-4.543,0.165l-0.568-0.739
			c-0.311-0.408-1.893-3.843-3.514-7.635c-1.623-3.792-6.078-14.004-9.902-22.693s-7.645-17.67-8.488-19.955l-1.533-4.156
			l-0.633-0.244l-0.635-0.242l-0.809,0.5l-0.811,0.5l-0.287,27.167l-0.287,27.167l-3.598,0.172l-3.598,0.171L405.305,497.809
			L405.305,497.809z M502.836,459.287l0.148-39.21h23.268h23.268l0.17,3.878l0.17,3.878h-19.445h-19.443l-0.689,0.689l-0.689,0.689
			v11.88v11.879l0.764,0.635l0.766,0.635l14.604,0.154l14.604,0.153v3.734v3.734l-14.604,0.153l-14.604,0.154l-0.766,0.635
			l-0.764,0.635v12.741v12.741l0.689,0.689l0.689,0.689h19.418h19.418v4.021v4.021h-23.559H502.69L502.836,459.287L502.836,459.287z
			 M569.032,497.781c-0.152-0.396-0.209-18.04-0.127-39.21l0.148-38.493l16.088-0.174l16.086-0.174l4.309,0.948
			c2.369,0.521,5.457,1.365,6.861,1.874l2.553,0.926l4.055,2.706c6.99,4.664,10.75,8.776,14.08,15.393l1.613,3.205l1.219,4.459
			l1.217,4.459v5.459v5.459l-1.119,4.045c-2.824,10.191-8.643,18.129-17.383,23.721c-4.211,2.693-6.693,3.664-12.76,4.988
			l-5.166,1.127h-15.699h-15.701L569.032,497.781L569.032,497.781z M607.446,489.117c2.027-0.735,4.938-2.071,6.469-2.969
			l2.781-1.631l3.885-3.938l3.883-3.938l2.17-4.44l2.17-4.44v-8.617v-8.618l-2.145-4.513l-2.145-4.512l-4.545-4.546l-4.547-4.546
			l-4.512-2.145l-4.514-2.145h-14.65h-14.648l-0.15,30.45c-0.082,16.746-0.025,30.771,0.125,31.167l0.275,0.718h13.207h13.205
			L607.446,489.117L607.446,489.117z M651.063,459.287l0.146-39.21l3.305-0.172l3.303-0.172l0.01,0.603
			c0.006,0.332,0.012,17.795,0.012,38.809c0,21.012-0.008,38.463-0.012,38.779l-0.01,0.574h-3.451h-3.451L651.063,459.287
			L651.063,459.287z M667.489,498.212l-0.334-0.333l3.344-9.026c8.127-21.937,11.17-30.268,17.467-47.806
			c3.688-10.27,6.941-19.262,7.232-19.984l0.529-1.312l6.146,0.163l6.146,0.163l1.531,4.309
			c3.461,9.736,18.143,49.924,22.193,60.752l4.352,11.631l-0.717,0.864l-0.719,0.864h-3.354h-3.355l-0.637-2.441
			c-0.35-1.343-1.246-3.992-1.99-5.889s-1.523-4.134-1.73-4.973l-0.381-1.525l-1.244-0.334l-1.242-0.334l-19.658-0.008
			l-19.656-0.008l-0.701,1.293c-0.385,0.711-1.779,4.137-3.1,7.611l-2.398,6.32l-3.695,0.167l-3.695,0.167L667.489,498.212
			L667.489,498.212z M719.289,474.367c0-0.574-1.58-5.172-5.33-15.51c-4.447-12.264-8.07-22.307-9.17-25.423l-1.166-3.303h-1.592
			h-1.594l-1.865,4.452c-1.025,2.449-2.189,5.487-2.584,6.75c-0.9,2.887-9.693,26.648-11.199,30.269
			c-0.615,1.481-1.119,2.838-1.119,3.017v0.324h17.809h17.811V474.367z M11.587,454.08l-1.249-1.33v-18.736v-18.736l1.514-1.191
			l1.514-1.191h18.2h18.2l1.543,1.612l1.544,1.611v18.125v18.125l-1.409,1.521l-1.409,1.521H31.435H12.837L11.587,454.08
			L11.587,454.08z M58.554,453.928l-1.393-1.481l-0.167-17.98l-0.167-17.98l1.51-1.795l1.51-1.795H77.95h18.101l1.669,1.188
			l1.668,1.188v18.82v18.82l-1.33,1.248l-1.33,1.25H78.338H59.947L58.554,453.928z M105.453,454.133l-0.895-1.277v-18.831v-18.831
			l1.149-1.149l1.149-1.149h18.321h18.321l1.211,1.005l1.211,1.006l0.03,19.222l0.03,19.222l-1.321,1.017l-1.322,1.018
			l-18.496,0.012l-18.495,0.014L105.453,454.133L105.453,454.133z M58.361,407.107l-1.487-1.768v-17.946v-17.945l1.611-1.544
			l1.611-1.544h18.455h18.455l1.19,1.514l1.191,1.514v18.603v18.603l-1.867,1.139l-1.867,1.138l-17.902,0.002l-17.903,0.002
			L58.361,407.107L58.361,407.107z M105.816,407.703l-1.257-1.171v-18.809v-18.809l0.895-1.277l0.895-1.277h18.639h18.639
			l1.149,1.149l1.149,1.149v19.181v19.181l-1.954,0.927l-1.954,0.927h-17.471h-17.471L105.816,407.703L105.816,407.703z
			 M152.918,407.545l-1.249-1.33v-18.996v-18.995l0.949-0.789l0.949-0.789l18.475-0.166l18.475-0.166l1.018,1.125l1.018,1.125
			l-0.021,19.127l-0.021,19.127l-1.319,1.014l-1.318,1.015l-17.853,0.013l-17.854,0.013L152.918,407.545L152.918,407.545z
			 M106.155,361.339l-1.563-0.969l-0.338-2.319l-0.339-2.319l0.178-16.745l0.178-16.745l1.095-1.208l1.094-1.208h18.781h18.781
			l0.951,1.051l0.951,1.05v19.33v19.33l-1.695,0.876l-1.695,0.876l-17.407-0.015l-17.408-0.016L106.155,361.339L106.155,361.339z"/>
		<path id="path3032" fill="#979798" d="M234.686,554.221c-3.061-1.432-4.562-2.762-5.725-5.072l-0.965-1.92l0.311-0.81l0.311-0.81
			h1.398h1.397l1.166,1.975l1.165,1.975l1.847,0.955l1.847,0.955h1.926h1.926l2.156-1.113l2.157-1.112l1.293-1.901l1.292-1.902
			v-2.797v-2.795l-1.867-2.033l-1.867-2.033l-7.138-3.561l-7.138-3.561l-1.336-2.457l-1.336-2.457v-3.454v-3.454l1.097-2.132
			c0.603-1.173,1.831-2.819,2.729-3.658l1.633-1.526l2.225-0.916l2.225-0.914h2.971h2.972l3.069,1.867l3.07,1.867l1.214,2.131
			l1.214,2.131l-0.941,0.944l-0.941,0.944l-1.069-0.346l-1.069-0.344l-0.958-1.689l-0.958-1.689l-2.322-1.186l-2.323-1.184h-1.195
			h-1.195l-2.131,1.092c-1.172,0.602-2.688,1.701-3.369,2.442l-1.238,1.349l-0.558,2.062l-0.558,2.064l0.742,2.156l0.741,2.156
			l1.342,1.459l1.341,1.459l6.32,3.016l6.32,3.016l1.713,1.818l1.714,1.818l0.216,4.279l0.216,4.279l-0.364,1.453l-0.365,1.451
			l-2.14,2.374l-2.14,2.374l-2.298,1.046l-2.298,1.046l-2.585-0.027l-2.585-0.027L234.686,554.221L234.686,554.221z
			 M376.418,553.752l-3.62-1.536l-2.161-2.124l-2.161-2.125l-1.668-3.046l-1.667-3.046l-0.231-15.062l-0.23-15.062l0.365-1.455
			l0.365-1.455h1.385h1.384l0.185,15.656l0.185,15.654l1.783,3.16l1.782,3.16l2.42,1.862l2.422,1.862l3.201,0.93l3.201,0.932
			l3.611-0.979l3.613-0.979l2.299-1.968l2.301-1.968l1.334-2.145l1.332-2.145l0.287-16.374l0.287-16.374l1.867-0.18l1.867-0.18
			v15.457v15.457l-0.822,2.732l-0.822,2.732l-1.564,2.259l-1.566,2.259l-2.639,1.91l-2.639,1.911l-2.832,0.944l-2.832,0.945
			l-3.199-0.043l-3.201-0.044L376.418,553.752L376.418,553.752z M160.287,531.572V508.84h1.425h1.425l0.315,1.293l0.314,1.293
			l-0.16,21.256l-0.16,21.258l-1.58,0.182l-1.58,0.182V531.572L160.287,531.572z M178.664,553.365
			c-0.004-0.475-0.007-10.299-0.007-21.832s0.003-21.357,0.007-21.832l0.007-0.861h2.204h2.205l13.164,19.878l13.164,19.878
			l0.151-19.916l0.151-19.914l1.572,0.18l1.573,0.182l0.15,22.55l0.15,22.55h-2.561h-2.562l-1.958-3.016
			c-1.077-1.66-4.146-6.378-6.819-10.485c-10.221-15.705-11.274-17.352-13.707-21.436c-1.376-2.31-2.711-4.329-2.966-4.486
			l-0.464-0.286v19.854v19.855h-1.723h-1.724L178.664,553.365L178.664,553.365z M277.488,533.903v-20.326l-0.754-0.625l-0.754-0.626
			l-6.858-0.163L262.263,512v-1.437v-1.437l16.623-0.152l16.624-0.152l0.525,0.525l0.526,0.525l-0.383,1.207l-0.383,1.207h-6.536
			h-6.536l-0.907,1.293l-0.907,1.293l0.027,18.672c0.016,10.269,0.021,19.123,0.013,19.676l-0.015,1.006h-1.724h-1.724V533.903
			L277.488,533.903z M306.788,531.572V508.84h1.425h1.426l0.314,1.293l0.314,1.293l-0.16,21.256l-0.159,21.258l-1.58,0.182
			l-1.58,0.182V531.572L306.788,531.572z M336.088,533.985v-20.318l-0.689-0.689l-0.689-0.689h-7.066h-7.066v-1.724v-1.724h16.948
			h16.948v1.724v1.724l-6.751,0.009l-6.75,0.009l-0.711,0.451l-0.711,0.451l-0.15,20.367l-0.151,20.365l-1.58,0.182l-1.58,0.182
			V533.985L336.088,533.985z M427.299,533.401l-0.15-20.826l-7.469-0.287L412.211,512v-1.437v-1.437l17.027-0.152l17.027-0.151
			l0.334,0.87l0.334,0.87l-0.332,0.862l-0.33,0.861h-6.801h-6.799l-0.908,1.293l-0.906,1.293l0.027,18.672
			c0.016,10.269,0.021,19.123,0.014,19.676l-0.016,1.006h-1.717h-1.717L427.299,533.401L427.299,533.401z M456.873,531.688
			l0.15-22.561H471.1h14.074v1.437V512l-11.627,0.155l-11.629,0.155l-0.932,1.421l-0.932,1.421l0.217,6.303l0.215,6.303l0.738,0.739
			l0.736,0.738l8.303,0.187l8.305,0.186v1.682v1.681h-8.299h-8.297l-0.895,1.276l-0.895,1.277v6.416v6.415l1.004,1.212l1.006,1.211
			l11.49,0.145l11.49,0.145v1.438v1.436l-14.225,0.154l-14.227,0.153L456.873,531.688L456.873,531.688z M58.166,500.039
			l-1.292-1.898V480.76v-17.383l0.591-1.104l0.592-1.105l1.678-0.868l1.678-0.867l17.12,0.002l17.121,0.002l1.867,1.139l1.867,1.139
			v18.867v18.867l-1.33,1.249l-1.33,1.249l-18.635-0.004l-18.635-0.004L58.166,500.039L58.166,500.039z M160.287,459.145V419.79
			l3.878,0.023l3.878,0.023l12.632,19.367c6.947,10.652,16.446,25.184,21.108,32.293l8.477,12.927l0.148-32.173l0.148-32.173
			l3.878-0.17l3.878-0.17v39.381v39.38h-4.254h-4.254l-1.778-3.016c-0.978-1.659-3.265-5.295-5.082-8.078
			c-1.817-2.785-5.362-8.215-7.877-12.065c-20.391-31.224-22.105-33.903-25.412-39.709l-1.613-2.833l-0.39,2.833l-0.39,2.832
			l-0.021,29.301c-0.011,16.115-0.03,29.623-0.041,30.019l-0.02,0.718h-3.447h-3.447V459.145L160.287,459.145z M237.26,497.781
			c-0.008-0.508,0.001-64.752,0.011-77.273l0-0.718h23.555h23.555l0.031,0.718c0.018,0.395,0.107,1.881,0.2,3.303
			c0.093,1.422,0.051,2.909-0.093,3.304l-0.262,0.718h-19.357h-19.357l-0.689,0.689l-0.689,0.689l0.009,11.518l0.009,11.52
			l0.544,0.861l0.544,0.862l14.815,0.288l14.815,0.287v3.734v3.734l-14.604,0.152l-14.604,0.154l-0.765,0.635l-0.765,0.635v12.742
			v12.74l0.689,0.689l0.689,0.689h19.38h19.38l0.23,1.006c0.204,0.887,0.166,4.291-0.069,6.32l-0.083,0.717h-23.555h-23.555
			L237.26,497.781L237.26,497.781z M322.025,497.781c-0.132-0.396-2.076-5.76-4.322-11.922
			c-4.089-11.221-7.771-21.334-14.221-39.066c-1.896-5.215-4.776-13.1-6.399-17.523c-1.623-4.424-2.947-8.378-2.942-8.788
			l0.009-0.744l3.858,0.17l3.858,0.17l2.966,8.043c1.631,4.424,4.56,12.438,6.508,17.81c1.949,5.372,4.28,11.706,5.182,14.075
			c2.585,6.801,8.478,23.051,9.22,25.428l0.674,2.158l1.065,0.57c0.585,0.312,1.449,0.57,1.919,0.57h0.854l0.369-1.867
			c0.203-1.027,1.116-3.807,2.029-6.176c4.229-10.971,8.034-21.701,8.034-22.658c0-0.943-1.938-6.388-10.713-30.108l-2.624-7.091
			l0.553-0.552l0.552-0.552l3.387,0.175l3.387,0.175l3.099,8.33c1.704,4.582,3.952,10.518,4.995,13.192l1.896,4.863l0.648-1.703
			c0.758-1.992,4.008-11.156,6.367-17.958c0.91-2.621,1.925-5.271,2.255-5.889l0.602-1.124h4.062h4.063l-0.411,1.005
			c-0.41,1.003-3.345,9.01-6.896,18.816c-1.03,2.844-2.938,7.984-4.238,11.424s-2.365,6.568-2.365,6.951
			c0,0.732,9.174,25.66,10.628,28.879l0.844,1.867h0.857h0.857l0.877-1.338c0.482-0.736,1.916-4.291,3.187-7.9
			s3.451-9.664,4.846-13.455c2.584-7.031,7.168-19.611,12.768-35.046c1.721-4.74,3.363-9.2,3.652-9.911l0.525-1.292h3.748h3.746
			v0.977c0,0.537-0.76,3.058-1.688,5.602c-0.928,2.543-3.238,8.891-5.135,14.104s-5.822,15.943-8.723,23.842
			c-2.902,7.9-6.684,18.241-8.404,22.98c-1.72,4.74-3.363,9.2-3.652,9.911l-0.526,1.292h-5.957h-5.957l-2.453-6.75
			c-3.142-8.645-4.86-13.261-6.744-18.109l-1.511-3.889l-4.838,13.082c-2.66,7.194-5.067,13.663-5.35,14.374l-0.512,1.292h-6.062
			h-6.063L322.025,497.781L322.025,497.781z M405.305,497.809c-0.158-0.41-0.219-18.068-0.137-39.238l0.148-38.493h4.246h4.246
			l0.475,0.861c0.262,0.474,3.625,8.101,7.473,16.948c6.568,15.094,14.508,33.246,19.076,43.609l2.002,4.541l0.979,0.549l0.98,0.547
			l0.828-0.828l0.828-0.829l6.051-13.74c3.328-7.558,9.539-21.755,13.801-31.55c4.262-9.795,8.039-18.402,8.393-19.125l0.646-1.316
			l4.055,0.167l4.057,0.167l0.146,39.237l0.148,39.236l-3.883-0.17l-3.881-0.17l-0.287-26.715l-0.287-26.715l-1.545-0.178
			l-1.543-0.178l-0.535,1.9c-0.295,1.047-1.578,4.229-2.854,7.073c-1.275,2.844-4.457,10.083-7.07,16.087
			c-2.613,6.003-6.5,14.922-8.637,19.82l-3.885,8.904l-4.545,0.166l-4.543,0.166l-0.568-0.74c-0.311-0.407-1.893-3.843-3.514-7.635
			c-1.623-3.791-6.078-14.004-9.902-22.693s-7.645-17.67-8.488-19.955l-1.533-4.156l-0.633-0.243l-0.635-0.243l-0.809,0.5
			l-0.811,0.5l-0.287,27.168l-0.287,27.166l-3.598,0.172l-3.598,0.172L405.305,497.809L405.305,497.809z M502.836,459.288
			l0.148-39.21h23.268h23.268l0.17,3.878l0.17,3.878h-19.445h-19.443l-0.689,0.689l-0.689,0.689v11.879v11.879l0.764,0.635
			l0.766,0.635l14.604,0.154l14.604,0.154v3.734v3.734l-14.604,0.152l-14.604,0.154l-0.766,0.635l-0.764,0.635v12.742v12.74
			l0.689,0.689l0.689,0.689h19.418h19.418v4.021v4.021h-23.559H502.69L502.836,459.288L502.836,459.288z M569.032,497.781
			c-0.152-0.396-0.209-18.041-0.127-39.211l0.148-38.493l16.088-0.174l16.086-0.174l4.309,0.948
			c2.369,0.521,5.457,1.365,6.861,1.874l2.553,0.926l4.055,2.706c6.988,4.664,10.75,8.776,14.08,15.393l1.611,3.205l1.219,4.459
			l1.219,4.459v5.459v5.459l-1.119,4.045c-2.824,10.191-8.643,18.129-17.383,23.721c-4.211,2.693-6.695,3.664-12.76,4.988
			l-5.166,1.127h-15.699h-15.701L569.032,497.781L569.032,497.781z M607.446,489.117c2.027-0.735,4.938-2.07,6.469-2.968
			l2.781-1.631l3.885-3.938l3.883-3.938l2.17-4.439l2.17-4.441v-8.617v-8.617l-2.145-4.514l-2.145-4.512l-4.547-4.546l-4.545-4.546
			l-4.512-2.145l-4.514-2.145h-14.65h-14.648l-0.15,30.45c-0.082,16.746-0.025,30.771,0.125,31.167l0.275,0.718h13.207h13.205
			L607.446,489.117L607.446,489.117z M651.063,459.288l0.146-39.21l3.303-0.172l3.305-0.172l0.01,0.603
			c0.006,0.332,0.01,17.795,0.01,38.809c0,21.013-0.006,38.463-0.01,38.779l-0.01,0.574h-3.451h-3.451L651.063,459.288
			L651.063,459.288z M667.489,498.212l-0.334-0.333l3.344-9.026c8.127-21.937,11.17-30.268,17.467-47.806
			c3.688-10.269,6.941-19.262,7.232-19.983l0.529-1.312l6.146,0.163l6.146,0.163l1.531,4.309
			c3.461,9.736,18.143,49.924,22.193,60.752l4.352,11.631l-0.717,0.864l-0.719,0.864h-3.354h-3.355l-0.637-2.441
			c-0.35-1.342-1.246-3.992-1.99-5.889c-0.744-1.896-1.523-4.133-1.732-4.973l-0.379-1.525l-1.244-0.334l-1.244-0.334l-19.656-0.008
			l-19.656-0.008l-0.701,1.293c-0.385,0.711-1.779,4.137-3.1,7.612l-2.398,6.319l-3.695,0.168l-3.695,0.166L667.489,498.212
			L667.489,498.212z M719.289,474.368c0-0.574-1.58-5.173-5.33-15.511c-4.447-12.264-8.07-22.306-9.17-25.422l-1.166-3.304h-1.592
			h-1.594l-1.865,4.453c-1.025,2.449-2.189,5.486-2.584,6.75c-0.9,2.887-9.693,26.648-11.199,30.27
			c-0.615,1.48-1.119,2.838-1.119,3.016v0.324h17.809h17.811V474.368L719.289,474.368z M11.587,454.08l-1.249-1.33v-18.739v-18.739
			l1.668-1.188l1.668-1.188h18.101h18.101l1.487,1.768l1.488,1.768v17.722v17.722l-1.488,1.768l-1.487,1.768H31.357H12.836
			L11.587,454.08L11.587,454.08z M59.047,454.405c-0.482-0.553-1.168-1.57-1.525-2.26l-0.648-1.255v-16.737v-16.736l0.652-1.255
			c0.359-0.69,1.124-1.707,1.7-2.26l1.047-1.005h17.706h17.706l1.421,0.972c0.781,0.535,1.61,1.246,1.842,1.58l0.422,0.608
			l0.009,18.319l0.009,18.319l-1.466,1.357l-1.466,1.359H78.19H59.925L59.047,454.405L59.047,454.405z M105.808,454.08l-1.249-1.33
			v-18.736v-18.737l1.514-1.191l1.514-1.19h17.752h17.753l1.416,0.928l1.416,0.928v19.139v19.139l-1.514,1.189l-1.514,1.191h-17.919
			h-17.919L105.808,454.08L105.808,454.08z M58.361,407.107l-1.487-1.768v-17.946v-17.946l1.611-1.544l1.611-1.543h18.455h18.455
			l1.191,1.514l1.191,1.514v18.603v18.603l-1.867,1.138l-1.867,1.139l-17.903,0.002l-17.902,0.002L58.361,407.107L58.361,407.107z
			 M105.749,407.361l-1.191-1.514v-18.075v-18.075l0.986-1.668l0.985-1.668h18.183h18.183l1.514,1.19l1.514,1.191v19.142v19.142
			l-2.31,0.924l-2.31,0.924h-17.182H106.94L105.749,407.361z M152.918,407.545l-1.249-1.33V387.22v-18.995l0.949-0.789l0.949-0.789
			l18.475-0.166l18.475-0.166l1.018,1.125l1.018,1.125l-0.021,19.127l-0.021,19.127l-1.318,1.015l-1.318,1.014l-17.854,0.013
			l-17.853,0.013L152.918,407.545L152.918,407.545z M106.426,361.209l-1.867-1.151v-19.222v-19.222l1.277-0.895l1.277-0.894h18.257
			h18.256l1.149,1.149l1.149,1.149v18.87v18.87l-1.208,1.095l-1.208,1.094l-17.607,0.155l-17.607,0.155L106.426,361.209z"/>
		<path id="path3030" fill="#F05D63" d="M234.686,554.25c-2.755-1.251-4.553-2.888-5.781-5.263l-0.91-1.759l0.311-0.81l0.311-0.81
			h1.398h1.397l1.165,1.975l1.166,1.975l1.884,0.975l1.884,0.975l2.043,0.053l2.043,0.055l2.205-1.363l2.205-1.363l1.088-1.783
			l1.087-1.784l0.002-2.709l0.002-2.709l-1.858-2.116l-1.858-2.115l-7.05-3.389l-7.05-3.387l-1.433-2.828l-1.433-2.828v-2.82v-2.822
			l0.841-2.012c0.462-1.105,1.517-2.814,2.343-3.797l1.503-1.787l2.613-1.155l2.613-1.155h2.828h2.828l1.838,0.927
			c2.395,1.208,4.886,3.544,5.948,5.577l0.847,1.621l-0.681,0.82c-0.375,0.451-1.006,0.82-1.403,0.82H248.9l-2.106-2.569
			l-2.106-2.57l-2.272-0.681l-2.272-0.681l-2.175,0.651l-2.175,0.652l-1.747,1.707l-1.747,1.709l-0.699,2.332l-0.699,2.332
			l1.096,2.438l1.095,2.436l1.371,1.254c1.347,1.232,8.014,4.779,8.982,4.779c0.271,0,1.708,0.77,3.193,1.711l2.699,1.712
			l1.146,1.88l1.146,1.879l0.002,4.193l0.002,4.193l-0.833,1.609c-0.458,0.887-1.76,2.425-2.894,3.42l-2.062,1.811l-2.06,0.861
			l-2.06,0.859l-2.372-0.04l-2.372-0.04L234.686,554.25L234.686,554.25z M376.418,553.752l-3.62-1.536l-2.258-2.218l-2.258-2.219
			l-1.428-2.952l-1.428-2.952l-0.054-15.512c-0.029-8.532-0.038-15.982-0.02-16.559l0.034-1.045l1.293,0.184l1.292,0.184
			l0.287,15.512l0.288,15.512l1.557,2.952l1.557,2.952l2.344,2.006l2.342,2.006l3.545,0.994l3.543,0.994l3.121-0.748l3.119-0.749
			l1.734-1.182c0.953-0.649,2.793-2.436,4.086-3.968l2.352-2.787l0.287-16.746l0.287-16.748l1.867-0.18l1.867-0.18l-0.014,15.117
			l-0.014,15.117l-0.594,2.586l-0.596,2.584l-1.764,2.754l-1.766,2.754l-2.578,1.773l-2.578,1.773l-2.939,1.074l-2.939,1.074
			l-3.168-0.043l-3.168-0.044L376.418,553.752L376.418,553.752z M160.549,553.507c-0.152-0.396-0.208-10.544-0.125-22.55l0.15-21.83
			l1.293-0.184l1.292-0.184l0.012,0.758c0.021,1.373,0.03,43.256,0.009,43.99l-0.021,0.719h-1.167h-1.167L160.549,553.507
			L160.549,553.507z M178.808,531.716l0.15-22.589l1.615-0.186l1.614-0.185l0.795,0.659c0.437,0.363,6.562,9.346,13.61,19.961
			l12.815,19.303l0.151-19.957l0.151-19.957l1.572,0.18l1.572,0.182v22.406v22.406l-2.363,0.173l-2.364,0.173l-9.64-14.823
			c-5.302-8.153-11.089-17.243-12.861-20.201l-3.222-5.378l-0.287,20.027l-0.287,20.029l-1.587,0.182l-1.586,0.184L178.808,531.716
			L178.808,531.716z M277.871,553.844l-0.383-0.383v-19.942v-19.942l-0.754-0.625l-0.754-0.626l-6.858-0.163L262.263,512v-1.437
			v-1.437l16.623-0.152l16.624-0.152l0.525,0.525l0.526,0.525l-0.383,1.207l-0.383,1.207h-6.87h-6.87l-0.561,1.474l-0.561,1.474
			v19.496v19.496h-1.34C278.857,554.227,278.081,554.055,277.871,553.844L277.871,553.844z M307.05,553.507
			c-0.151-0.396-0.208-10.544-0.125-22.55l0.15-21.83l1.293-0.184l1.292-0.184l0.013,0.758c0.021,1.373,0.029,43.256,0.009,43.99
			l-0.021,0.719h-1.167h-1.167L307.05,553.507L307.05,553.507z M336.472,553.844l-0.384-0.383v-19.898v-19.896l-0.689-0.689
			l-0.689-0.689h-7.104H320.5l0.182-1.58l0.182-1.58h16.661h16.661l0.18,1.562l0.181,1.562l-7.321,0.161l-7.321,0.161l-0.482,1.724
			l-0.483,1.724l0.048,18.385c0.026,10.111,0.031,18.707,0.012,19.102l-0.036,0.719h-1.054
			C337.328,554.227,336.682,554.055,336.472,553.844L336.472,553.844z M427.299,533.401l-0.15-20.826l-7.469-0.287L412.211,512
			v-1.437v-1.437l16.66-0.152l16.662-0.154l0.678,0.928l0.68,0.928l-0.311,0.805l-0.309,0.807h-7.135h-7.133l-0.561,1.474
			l-0.561,1.474v19.496v19.496h-1.717h-1.717L427.299,533.401L427.299,533.401z M457.002,553.518
			c-0.154-0.402-0.213-10.555-0.129-22.561l0.15-21.83H471.1h14.074v1.437V512l-11.939,0.154l-11.939,0.156l-0.605,1.568
			l-0.607,1.568l0.203,6.155l0.201,6.155l0.738,0.738l0.736,0.739l8.16,0.287l8.158,0.287l0.184,1.58l0.182,1.579h-8.67h-8.672
			l-0.559,1.475l-0.561,1.474v5.958v5.957l0.555,1.462l0.557,1.462l11.939,0.155l11.939,0.155v1.437v1.437l-13.945,0.154
			l-13.945,0.153L457.002,553.518L457.002,553.518z M58.166,500.039l-1.292-1.898v-17.382v-17.382l0.591-1.104l0.592-1.105
			l1.678-0.868l1.678-0.867l17.12,0.002l17.121,0.002l1.867,1.139l1.867,1.139v18.867v18.867l-1.33,1.249l-1.33,1.249l-18.635-0.004
			l-18.634-0.004L58.166,500.039L58.166,500.039z M160.426,459.288l0.147-39.211l3.587-0.171l3.586-0.171l8.959,13.672
			c4.927,7.52,14.43,22,21.117,32.178l12.159,18.506l0.287-32.007l0.287-32.008h3.734h3.734l0.147,39.211l0.148,39.21l-4.169-0.02
			l-4.169-0.021l-7.259-11.326c-3.992-6.229-12.15-18.823-18.128-27.987s-12.127-18.806-13.665-21.428
			c-1.538-2.621-3.01-4.898-3.273-5.06l-0.477-0.295v33.068v33.068h-3.451h-3.451L160.426,459.288L160.426,459.288z
			 M237.411,459.288l0.148-39.211h23.268h23.268l0.17,3.878l0.17,3.878H264.99h-19.445l-0.689,0.689l-0.689,0.689v11.88v11.879
			l0.765,0.635l0.765,0.635l14.603,0.154l14.604,0.154v3.734v3.734l-14.604,0.152l-14.603,0.154l-0.765,0.635l-0.765,0.635v12.741
			v12.741l0.689,0.689l0.689,0.689h19.418h19.418v4.021v4.021h-23.559h-23.559L237.411,459.288L237.411,459.288z M322.372,497.725
			c-0.353-0.426-1.641-3.594-2.861-7.038c-3.496-9.868-22.821-62.808-24.157-66.178c-0.663-1.67-1.205-3.427-1.205-3.904v-0.867
			l3.842,0.17l3.842,0.17l2.98,8.043c3.161,8.532,7.44,20.243,13.751,37.631c2.121,5.846,4.371,11.896,5,13.445
			c0.629,1.551,1.484,3.953,1.902,5.342c0.418,1.387,1.071,2.898,1.452,3.357l0.693,0.836h1.354h1.355l0.337-1.58
			c0.368-1.73,1.941-6.191,6.896-19.551l3.255-8.777l-0.279-1.563c-0.153-0.86-1.18-4.02-2.279-7.021s-3.974-10.849-6.388-17.438
			l-4.387-11.98l0.318-0.515l0.318-0.515h2.791c1.536,0,3.175,0.147,3.643,0.327l0.852,0.327l2.992,8.147
			c1.646,4.481,3.836,10.327,4.866,12.99l1.873,4.843l0.579-1.108c0.318-0.61,1.771-4.599,3.228-8.865
			c1.457-4.266,3.373-9.695,4.257-12.064l1.608-4.309h4.001h4.001l-0.138,0.699c-0.136,0.69-3.299,9.375-10.084,27.679l-3.491,9.418
			l0.956,2.646c0.526,1.455,2.986,8.189,5.467,14.965l4.51,12.318l0.995,0.608l0.995,0.608l1.015-1.236l1.016-1.235l1.597-4.509
			c0.878-2.48,3.103-8.646,4.944-13.703c1.841-5.055,4.9-13.457,6.796-18.672c1.896-5.213,5.119-14.003,7.158-19.533l3.711-10.054
			l3.793-0.17l3.795-0.17v0.928c0,0.51-1.199,4.206-2.664,8.213c-3.037,8.307-6.014,16.497-7.973,21.936
			c-3.256,9.041-6.107,16.82-13.792,37.63l-3.607,9.767l-5.975,0.162l-5.976,0.162l-4.219-11.652
			c-2.321-6.408-4.765-12.885-5.43-14.39l-1.211-2.737l-4.791,13.078c-2.636,7.193-5.021,13.661-5.302,14.372l-0.511,1.292h-5.688
			h-5.687L322.372,497.725L322.372,497.725z M405.305,497.809c-0.156-0.41-0.219-18.068-0.137-39.238l0.148-38.493h4.246h4.246
			l0.475,0.862c0.262,0.474,3.625,8.101,7.473,16.948c6.568,15.094,14.508,33.246,19.076,43.609l2.002,4.541l0.979,0.549l0.98,0.547
			l0.828-0.828l0.828-0.83l6.051-13.739c3.328-7.558,9.539-21.755,13.801-31.55c4.262-9.796,8.039-18.402,8.393-19.126l0.646-1.315
			l4.055,0.167l4.057,0.167l0.146,39.237l0.148,39.236l-3.883-0.17l-3.881-0.17l-0.287-26.715l-0.287-26.715l-1.543-0.178
			l-1.545-0.179l-0.535,1.901c-0.295,1.047-1.578,4.229-2.854,7.072c-1.275,2.845-4.457,10.084-7.07,16.088
			c-2.613,6.003-6.5,14.922-8.637,19.82l-3.885,8.904l-4.545,0.166l-4.543,0.165l-0.568-0.739c-0.311-0.408-1.893-3.843-3.514-7.635
			c-1.623-3.791-6.078-14.004-9.902-22.693s-7.645-17.67-8.488-19.955l-1.533-4.156l-0.633-0.244l-0.635-0.242l-0.809,0.5
			l-0.811,0.5l-0.287,27.168l-0.287,27.166l-3.598,0.172l-3.598,0.171L405.305,497.809L405.305,497.809z M502.836,459.288
			l0.148-39.211h23.268h23.268l0.17,3.878l0.17,3.878h-19.445h-19.443l-0.689,0.689l-0.689,0.689v11.88v11.879l0.764,0.635
			l0.766,0.635l14.604,0.154l14.604,0.154v3.734v3.734l-14.604,0.152l-14.604,0.154l-0.766,0.635l-0.764,0.635v12.741v12.741
			l0.689,0.689l0.689,0.689h19.418h19.418v4.021v4.021h-23.559H502.69L502.836,459.288L502.836,459.288z M569.032,497.781
			c-0.152-0.396-0.209-18.04-0.127-39.21l0.148-38.493l16.088-0.173l16.086-0.174l4.309,0.948c2.369,0.521,5.457,1.365,6.861,1.874
			l2.553,0.926l4.055,2.706c6.99,4.664,10.75,8.776,14.08,15.393l1.613,3.205l1.217,4.459l1.219,4.459v5.459v5.459l-1.119,4.045
			c-2.824,10.191-8.643,18.129-17.383,23.721c-4.211,2.693-6.695,3.664-12.76,4.988l-5.166,1.127h-15.699h-15.701L569.032,497.781
			L569.032,497.781z M607.446,489.117c2.027-0.735,4.938-2.071,6.469-2.969l2.781-1.63l3.885-3.938l3.883-3.938l2.17-4.439
			l2.17-4.441v-8.617v-8.617l-2.145-4.514l-2.145-4.512l-4.545-4.546l-4.547-4.545l-4.512-2.145l-4.514-2.145h-14.65h-14.648
			l-0.15,30.45c-0.082,16.746-0.025,30.771,0.125,31.167l0.275,0.718h13.207h13.205L607.446,489.117L607.446,489.117z
			 M651.063,459.288l0.146-39.211l3.305-0.172l3.303-0.172l0.01,0.603c0.006,0.332,0.01,17.795,0.01,38.809
			c0,21.013-0.006,38.463-0.01,38.779l-0.01,0.574h-3.451h-3.451L651.063,459.288L651.063,459.288z M667.489,498.212l-0.334-0.333
			l3.344-9.026c8.127-21.937,11.17-30.268,17.467-47.806c3.688-10.269,6.941-19.262,7.232-19.984l0.529-1.312l6.146,0.163
			l6.146,0.163l1.531,4.309c3.461,9.736,18.143,49.924,22.193,60.752l4.352,11.631l-0.717,0.864l-0.719,0.864h-3.354h-3.355
			l-0.637-2.441c-0.35-1.343-1.246-3.992-1.99-5.889s-1.523-4.133-1.73-4.973l-0.381-1.525l-1.244-0.334l-1.242-0.334l-19.658-0.008
			l-19.656-0.008l-0.701,1.293c-0.385,0.711-1.779,4.137-3.1,7.611l-2.398,6.32l-3.695,0.168l-3.695,0.166L667.489,498.212
			L667.489,498.212z M719.289,474.367c0-0.573-1.58-5.172-5.33-15.51c-4.447-12.264-8.07-22.307-9.17-25.423l-1.166-3.303h-1.592
			h-1.594l-1.865,4.453c-1.025,2.449-2.189,5.486-2.584,6.75c-0.9,2.887-9.693,26.648-11.199,30.27
			c-0.615,1.48-1.119,2.838-1.119,3.016v0.324h17.809h17.811V474.367L719.289,474.367z M11.529,453.897l-1.19-1.514v-18.284v-18.284
			l1.574-1.459l1.574-1.459h18.196h18.196l1.487,1.768l1.487,1.768v17.722v17.722l-1.487,1.768l-1.487,1.768H31.299H12.72
			L11.529,453.897L11.529,453.897z M105.808,454.08l-1.25-1.33v-18.736v-18.737l1.514-1.191l1.514-1.19h17.752h17.753l1.416,0.928
			l1.416,0.928v19.139v19.138l-1.514,1.19l-1.514,1.191h-17.92h-17.919L105.808,454.08L105.808,454.08z M58.361,407.107
			l-1.487-1.768v-17.946v-17.945l1.611-1.544l1.611-1.544h18.455h18.455l1.19,1.514l1.191,1.514v18.603v18.603l-1.867,1.138
			l-1.867,1.139l-17.902,0.002l-17.903,0.002L58.361,407.107L58.361,407.107z M152.918,407.545l-1.249-1.33V387.22v-18.996
			l0.949-0.788l0.949-0.789l18.475-0.166l18.475-0.166l1.018,1.125l1.018,1.125l-0.021,19.127l-0.021,19.127l-1.318,1.015
			l-1.318,1.014l-17.853,0.013l-17.854,0.013L152.918,407.545L152.918,407.545z M106.426,361.196l-1.867-1.139V341.09v-18.967
			l1.149-1.149l1.149-1.149h18.276h18.276l1.257,1.171l1.257,1.172v18.945v18.945l-1.867,1.139l-1.867,1.139h-16.948h-16.948
			L106.426,361.196z"/>
		<path id="path3028" fill="#EC1B23" d="M234.686,554.25c-2.755-1.251-4.553-2.888-5.781-5.263l-0.91-1.759l0.311-0.81l0.311-0.81
			h1.398h1.397l1.165,1.975l1.166,1.975l1.884,0.975l1.884,0.975l2.043,0.053l2.043,0.055l2.205-1.363l2.205-1.363l1.088-1.783
			l1.087-1.784l0.002-2.709l0.002-2.709l-1.858-2.116l-1.858-2.115l-7.05-3.389l-7.05-3.387l-1.433-2.828l-1.433-2.828v-2.82v-2.822
			l0.841-2.012c0.462-1.105,1.517-2.814,2.343-3.797l1.503-1.787l2.613-1.155l2.613-1.155h2.828h2.828l1.838,0.927
			c2.395,1.208,4.886,3.544,5.948,5.577l0.847,1.621l-0.681,0.82c-0.375,0.451-1.006,0.82-1.403,0.82H248.9l-2.106-2.569
			l-2.106-2.57l-2.272-0.681l-2.272-0.681l-2.175,0.651l-2.175,0.652l-1.747,1.707l-1.747,1.709l-0.699,2.332l-0.699,2.332
			l1.096,2.438l1.095,2.436l1.371,1.254c1.347,1.232,8.014,4.779,8.982,4.779c0.271,0,1.708,0.77,3.193,1.711l2.699,1.712
			l1.146,1.88l1.146,1.879l0.002,4.193l0.002,4.193l-0.833,1.609c-0.458,0.887-1.76,2.425-2.894,3.42l-2.062,1.811l-2.06,0.861
			l-2.06,0.859l-2.372-0.04l-2.372-0.04L234.686,554.25L234.686,554.25z M376.418,553.752l-3.62-1.536l-2.258-2.218l-2.258-2.219
			l-1.428-2.952l-1.428-2.952l-0.054-15.512c-0.029-8.532-0.038-15.982-0.02-16.559l0.034-1.045l1.293,0.184l1.292,0.184
			l0.287,15.512l0.288,15.512l1.557,2.952l1.557,2.952l2.344,2.006l2.342,2.006l3.545,0.994l3.543,0.994l3.121-0.748l3.119-0.749
			l1.734-1.182c0.953-0.649,2.793-2.436,4.086-3.968l2.352-2.787l0.287-16.746l0.287-16.748l1.867-0.18l1.867-0.18l-0.014,15.117
			l-0.014,15.117l-0.594,2.586l-0.596,2.584l-1.764,2.754l-1.766,2.754l-2.578,1.773l-2.578,1.773l-2.939,1.074l-2.939,1.074
			l-3.168-0.043l-3.168-0.044L376.418,553.752L376.418,553.752z M160.549,553.507c-0.152-0.396-0.208-10.544-0.125-22.55l0.15-21.83
			l1.293-0.184l1.292-0.184l0.012,0.758c0.021,1.373,0.03,43.256,0.009,43.99l-0.021,0.719h-1.167h-1.167L160.549,553.507
			L160.549,553.507z M178.808,531.716l0.15-22.589l1.615-0.186l1.614-0.185l0.795,0.659c0.437,0.363,6.562,9.346,13.61,19.961
			l12.815,19.303l0.151-19.957l0.151-19.957l1.572,0.18l1.572,0.182v22.406v22.406l-2.363,0.173l-2.364,0.173l-9.64-14.823
			c-5.302-8.153-11.089-17.243-12.861-20.201l-3.222-5.378l-0.287,20.027l-0.287,20.029l-1.587,0.182l-1.586,0.184L178.808,531.716
			L178.808,531.716z M277.871,553.844l-0.383-0.383v-19.942v-19.942l-0.754-0.625l-0.754-0.626l-6.858-0.163L262.263,512v-1.437
			v-1.437l16.623-0.152l16.624-0.152l0.525,0.525l0.526,0.525l-0.383,1.207l-0.383,1.207h-6.87h-6.87l-0.561,1.474l-0.561,1.474
			v19.496v19.496h-1.34C278.857,554.227,278.081,554.055,277.871,553.844L277.871,553.844z M307.05,553.507
			c-0.151-0.396-0.208-10.544-0.125-22.55l0.15-21.83l1.293-0.184l1.292-0.184l0.013,0.758c0.021,1.373,0.029,43.256,0.009,43.99
			l-0.021,0.719h-1.167h-1.167L307.05,553.507L307.05,553.507z M336.472,553.844l-0.384-0.383v-19.898v-19.896l-0.689-0.689
			l-0.689-0.689h-7.104H320.5l0.182-1.58l0.182-1.58h16.661h16.661l0.18,1.562l0.181,1.562l-7.321,0.161l-7.321,0.161l-0.482,1.724
			l-0.483,1.724l0.048,18.385c0.026,10.111,0.031,18.707,0.012,19.102l-0.036,0.719h-1.054
			C337.328,554.227,336.682,554.055,336.472,553.844L336.472,553.844z M427.299,533.401l-0.15-20.826l-7.469-0.287L412.211,512
			v-1.437v-1.437l16.66-0.152l16.662-0.154l0.678,0.928l0.68,0.928l-0.311,0.805l-0.309,0.807h-7.135h-7.133l-0.561,1.474
			l-0.561,1.474v19.496v19.496h-1.717h-1.717L427.299,533.401L427.299,533.401z M457.002,553.518
			c-0.154-0.402-0.213-10.555-0.129-22.561l0.15-21.83H471.1h14.074v1.437V512l-11.939,0.154l-11.939,0.156l-0.605,1.568
			l-0.607,1.568l0.203,6.155l0.201,6.155l0.738,0.738l0.736,0.739l8.16,0.287l8.158,0.287l0.184,1.58l0.182,1.579h-8.67h-8.672
			l-0.559,1.475l-0.561,1.474v5.958v5.957l0.555,1.462l0.557,1.462l11.939,0.155l11.939,0.155v1.437v1.437l-13.945,0.154
			l-13.945,0.153L457.002,553.518L457.002,553.518z M58.129,499.713l-1.255-2.232v-17.191v-17.191l0.718-0.887
			c0.395-0.488,1.357-1.313,2.139-1.834l1.42-0.945h17.267h17.267l1.42,0.973c0.781,0.534,1.61,1.245,1.842,1.579l0.422,0.608
			l0.009,18.163l0.009,18.163l-1.191,1.514l-1.19,1.514H78.195H59.384L58.129,499.713z M160.426,459.288l0.147-39.211l3.587-0.171
			l3.586-0.171l8.959,13.672c4.927,7.52,14.43,22,21.117,32.178l12.159,18.506l0.287-32.007l0.287-32.008h3.734h3.734l0.147,39.211
			l0.148,39.21l-4.169-0.02l-4.169-0.021l-7.259-11.326c-3.992-6.229-12.15-18.823-18.128-27.987s-12.127-18.806-13.665-21.428
			c-1.538-2.621-3.01-4.898-3.273-5.06l-0.477-0.295v33.068v33.068h-3.451h-3.451L160.426,459.288L160.426,459.288z
			 M237.411,459.288l0.148-39.211h23.268h23.268l0.17,3.878l0.17,3.878H264.99h-19.445l-0.689,0.689l-0.689,0.689v11.88v11.879
			l0.765,0.635l0.765,0.635l14.603,0.154l14.604,0.154v3.734v3.734l-14.604,0.152l-14.603,0.154l-0.765,0.635l-0.765,0.635v12.742
			v12.74l0.689,0.689l0.689,0.689h19.418h19.418v4.021v4.021h-23.559h-23.559L237.411,459.288L237.411,459.288z M322.372,497.725
			c-0.353-0.426-1.641-3.594-2.861-7.038c-3.496-9.868-22.821-62.808-24.157-66.178c-0.663-1.67-1.205-3.427-1.205-3.904v-0.867
			l3.842,0.169l3.842,0.17l2.98,8.043c3.161,8.532,7.44,20.244,13.751,37.631c2.121,5.846,4.371,11.896,5,13.445
			c0.629,1.551,1.484,3.953,1.902,5.342c0.418,1.387,1.071,2.898,1.452,3.357l0.693,0.836h1.354h1.355l0.337-1.58
			c0.368-1.73,1.941-6.191,6.896-19.551l3.255-8.777l-0.279-1.563c-0.153-0.86-1.18-4.02-2.279-7.021
			c-1.1-3.001-3.974-10.849-6.388-17.438l-4.387-11.98l0.318-0.515l0.318-0.515h2.791c1.536,0,3.175,0.147,3.643,0.327l0.852,0.327
			l2.992,8.147c1.646,4.481,3.836,10.327,4.866,12.991l1.873,4.842l0.579-1.108c0.318-0.61,1.771-4.599,3.228-8.864
			c1.457-4.266,3.373-9.695,4.257-12.065l1.608-4.309h4.001h4.001l-0.138,0.699c-0.136,0.69-3.299,9.375-10.084,27.679l-3.491,9.418
			l0.956,2.646c0.526,1.455,2.986,8.189,5.467,14.965l4.51,12.318l0.995,0.608l0.995,0.608l1.015-1.236l1.016-1.235l1.597-4.509
			c0.878-2.48,3.103-8.646,4.944-13.703c1.841-5.055,4.9-13.457,6.796-18.672c1.896-5.213,5.119-14.003,7.158-19.533l3.711-10.054
			l3.793-0.17l3.795-0.169v0.928c0,0.511-1.199,4.207-2.664,8.213c-3.037,8.307-6.014,16.497-7.973,21.936
			c-3.256,9.041-6.107,16.82-13.792,37.631l-3.607,9.766l-5.975,0.162l-5.976,0.162l-4.219-11.652
			c-2.321-6.408-4.765-12.885-5.43-14.39l-1.211-2.737l-4.791,13.078c-2.636,7.193-5.021,13.661-5.302,14.372l-0.511,1.292h-5.688
			h-5.687L322.372,497.725L322.372,497.725z M405.748,498.118l-0.719-0.29v-38.11v-38.11l0.35-0.909l0.348-0.909h3.992h3.992
			l1.178,2.729c1.461,3.391,5.75,13.187,18.156,41.468l9.686,22.078l0.963,0.606l0.961,0.607l1.104-1.141l1.104-1.141l2.859-6.607
			c1.574-3.634,4.803-11.002,7.174-16.373c8.824-19.981,14.959-34.018,16.648-38.086l1.738-4.189l4.084,0.167l4.086,0.167
			l0.146,39.211l0.148,39.21h-3.117c-1.713,0-3.525-0.156-4.025-0.348l-0.908-0.35v-26.614v-26.614l-1.178-0.374l-1.176-0.374
			l-0.834,0.693c-0.459,0.381-0.834,1.044-0.834,1.475c0,0.43-5.088,12.43-11.305,26.666l-11.303,25.884l-4.627-0.165l-4.629-0.166
			l-2.371-5.457c-3.82-8.787-12.166-27.857-15.537-35.505c-3.523-7.991-4.559-10.63-5.057-12.898l-0.348-1.58h-1.363h-1.365
			l-0.348,0.909l-0.35,0.908v26.607v26.605l-0.908,0.35C411.1,498.559,406.788,498.537,405.748,498.118L405.748,498.118z
			 M502.836,459.288l0.148-39.211h23.268h23.268l0.17,3.871l0.17,3.871l-19.99,0.151l-19.99,0.151l-0.162,11.778l-0.164,11.777
			l0.318,1.293l0.316,1.292h14.865h14.865l0.348,0.909c0.334,0.869,0.506,6.43,0.205,6.68c-0.078,0.065-6.994,0.26-15.367,0.431
			l-15.225,0.312v13.788v13.788l19.965,0.151l19.963,0.151v4.014v4.014h-23.559H502.69L502.836,459.288L502.836,459.288z
			 M569.485,498.127l-0.719-0.299v-38.11v-38.11l0.35-0.909l0.348-0.909h16.203h16.203l4.85,1.207l4.85,1.207l3.514,1.707
			l3.514,1.707l3.904,3.112l3.906,3.112l2.504,3.311c3.098,4.097,5.686,9.216,6.92,13.69l0.941,3.408v6.895v6.895l-0.904,3.248
			c-3.902,14.041-15.418,24.817-30.045,28.117l-3.447,0.777l-16.086,0.121l-16.086,0.123L569.485,498.127L569.485,498.127z
			 M608.061,489.021c2.098-0.789,4.906-2.118,6.244-2.953l2.434-1.519l4.021-4.117l4.021-4.117l2.012-3.989l2.01-3.989l0.182-8.625
			l0.184-8.627l-2.59-5.162l-2.59-5.162l-3.912-3.925l-3.912-3.924l-5.285-2.549l-5.283-2.549l-14.25,0.154l-14.248,0.154
			l-0.15,30.45c-0.082,16.746-0.025,30.771,0.125,31.167l0.275,0.718h13.451h13.451L608.061,489.021L608.061,489.021z
			 M651.063,459.288l0.146-39.211l3.303-0.172l3.305-0.172v39.382v39.383h-3.451h-3.451L651.063,459.288z M667.903,497.977
			l-0.322-0.522l2.318-6.516c1.275-3.583,2.697-7.33,3.162-8.325c0.463-0.996,0.842-2.031,0.842-2.299s1.533-4.624,3.408-9.68
			c6.629-17.869,16.836-46.122,17.646-48.834l0.516-1.724l5.789-0.163l5.791-0.163l0.604,0.737c0.332,0.406,2.064,4.745,3.85,9.643
			c1.787,4.897,4.754,13.042,6.594,18.097s4.945,13.588,6.9,18.959c1.957,5.371,3.92,10.672,4.367,11.777
			c0.445,1.105,2.104,5.609,3.686,10.008l2.877,7.996l-0.635,0.765l-0.635,0.765h-3.365h-3.365l-0.342-1.58
			c-0.186-0.868-1.275-4.164-2.418-7.324l-2.076-5.746l-0.609-0.422l-0.609-0.422l-20.182-0.009l-20.182-0.009l-0.566,0.719
			c-0.555,0.699-2.25,4.81-4.744,11.49l-1.232,3.303h-3.371h-3.373L667.903,497.977L667.903,497.977z M717.788,469.342
			c-1.129-3.08-2.273-6.325-2.543-7.209c-0.268-0.885-1.939-5.539-3.717-10.342c-4.91-13.281-6.506-17.776-6.914-19.482
			l-0.375-1.556l-0.822-0.683l-0.822-0.682l-1.328,0.605l-1.33,0.605l-1.332,3.644c-0.732,2.004-1.518,3.903-1.744,4.219
			c-0.225,0.315-0.59,1.221-0.809,2.011c-0.5,1.799-6.475,18.203-9.846,27.034c-1.395,3.651-2.535,6.818-2.535,7.038v0.398h18.086
			h18.088L717.788,469.342L717.788,469.342z M11.529,453.897l-1.19-1.514v-18.284v-18.284l1.574-1.459l1.574-1.459h18.196h18.195
			l1.487,1.768l1.488,1.768v17.722v17.722l-1.488,1.768l-1.487,1.768H31.299H12.72L11.529,453.897z M105.808,454.08l-1.249-1.33
			v-18.736v-18.737l1.514-1.191l1.514-1.19h17.752h17.753l1.416,0.928l1.416,0.928v19.139v19.139l-1.514,1.189l-1.514,1.191h-17.919
			h-17.919L105.808,454.08z M58.454,407.088l-1.58-1.708v-17.966v-17.966l1.611-1.544l1.611-1.543h18.458h18.458l1.188,1.668
			l1.188,1.668v18.393v18.393l-1.935,1.196l-1.935,1.196l-17.742-0.04l-17.742-0.04L58.454,407.088z M153.183,407.684l-1.514-1.191
			v-18.875v-18.875l1.514-1.191l1.514-1.19h17.931h17.931l0.951,1.05l0.951,1.051v19.221v19.221l-1.668,0.986l-1.669,0.986h-17.213
			h-17.213L153.183,407.684L153.183,407.684z M106.426,361.196l-1.867-1.139V341.09v-18.967l1.149-1.149l1.149-1.149h18.276h18.276
			l1.257,1.171l1.257,1.172v18.945v18.945l-1.867,1.139l-1.867,1.139h-16.948h-16.948L106.426,361.196z"/>
		<path id="path3026" fill="#605D5E" d="M234.686,554.25c-2.755-1.251-4.553-2.888-5.781-5.263l-0.91-1.759l0.311-0.81l0.311-0.81
			h1.398h1.397l1.165,1.975l1.166,1.975l1.884,0.975l1.884,0.975l2.043,0.053l2.043,0.055l2.205-1.363l2.205-1.363l1.088-1.783
			l1.087-1.784l0.002-2.709l0.002-2.709l-1.858-2.116l-1.858-2.115l-7.05-3.389l-7.05-3.387l-1.433-2.828l-1.433-2.828v-2.82v-2.822
			l0.841-2.012c0.462-1.105,1.517-2.814,2.343-3.797l1.503-1.787l2.613-1.155l2.613-1.155h2.828h2.828l1.838,0.927
			c2.395,1.208,4.886,3.544,5.948,5.577l0.847,1.621l-0.681,0.82c-0.375,0.451-1.006,0.82-1.403,0.82H248.9l-2.106-2.569
			l-2.106-2.57l-2.272-0.681l-2.272-0.681l-2.175,0.651l-2.175,0.652l-1.747,1.707l-1.747,1.709l-0.699,2.332l-0.699,2.332
			l1.096,2.438l1.095,2.436l1.371,1.254c1.347,1.232,8.014,4.779,8.982,4.779c0.271,0,1.708,0.77,3.193,1.711l2.699,1.712
			l1.146,1.88l1.146,1.879l0.002,4.193l0.002,4.193l-0.833,1.609c-0.458,0.887-1.76,2.425-2.894,3.42l-2.062,1.811l-2.06,0.861
			l-2.06,0.859l-2.372-0.04l-2.372-0.04L234.686,554.25L234.686,554.25z M376.418,553.752l-3.62-1.536l-2.258-2.218l-2.258-2.219
			l-1.428-2.952l-1.428-2.952l-0.054-15.512c-0.029-8.532-0.038-15.982-0.02-16.559l0.034-1.045l1.293,0.184l1.292,0.184
			l0.287,15.512l0.288,15.512l1.557,2.952l1.557,2.952l2.344,2.006l2.342,2.006l3.545,0.994l3.543,0.994l3.121-0.748l3.119-0.749
			l1.734-1.182c0.953-0.649,2.793-2.436,4.086-3.968l2.352-2.787l0.287-16.746l0.287-16.748l1.867-0.18l1.867-0.18l-0.014,15.117
			l-0.014,15.117l-0.594,2.586l-0.596,2.584l-1.764,2.754l-1.766,2.754l-2.578,1.773l-2.578,1.773l-2.939,1.074l-2.939,1.074
			l-3.168-0.043l-3.168-0.044L376.418,553.752L376.418,553.752z M160.549,553.507c-0.152-0.396-0.208-10.544-0.125-22.55l0.15-21.83
			l1.293-0.184l1.292-0.184l0.012,0.758c0.021,1.373,0.03,43.256,0.009,43.99l-0.021,0.719h-1.167h-1.167L160.549,553.507
			L160.549,553.507z M178.808,531.716l0.15-22.589l1.615-0.186l1.614-0.185l0.795,0.659c0.437,0.363,6.562,9.346,13.61,19.961
			l12.815,19.303l0.151-19.957l0.151-19.957l1.572,0.18l1.572,0.182v22.406v22.406l-2.363,0.173l-2.364,0.173l-9.64-14.823
			c-5.302-8.153-11.089-17.243-12.861-20.201l-3.222-5.378l-0.287,20.027l-0.287,20.029l-1.587,0.182l-1.586,0.184L178.808,531.716
			L178.808,531.716z M277.871,553.844l-0.383-0.383v-19.942v-19.942l-0.754-0.625l-0.754-0.626l-6.858-0.163L262.263,512v-1.437
			v-1.437l16.623-0.152l16.624-0.152l0.525,0.525l0.526,0.525l-0.383,1.207l-0.383,1.207h-6.87h-6.87l-0.561,1.474l-0.561,1.474
			v19.496v19.496h-1.34C278.857,554.227,278.081,554.055,277.871,553.844L277.871,553.844z M307.05,553.507
			c-0.151-0.396-0.208-10.544-0.125-22.55l0.15-21.83l1.293-0.184l1.292-0.184l0.013,0.758c0.021,1.373,0.029,43.256,0.009,43.99
			l-0.021,0.719h-1.167h-1.167L307.05,553.507L307.05,553.507z M336.472,553.844l-0.384-0.383v-19.898v-19.896l-0.689-0.689
			l-0.689-0.689h-7.104H320.5l0.182-1.58l0.182-1.58h16.661h16.661l0.18,1.562l0.181,1.562l-7.321,0.161l-7.321,0.161l-0.482,1.724
			l-0.483,1.724l0.048,18.385c0.026,10.111,0.031,18.707,0.012,19.102l-0.036,0.719h-1.054
			C337.328,554.227,336.682,554.055,336.472,553.844L336.472,553.844z M427.299,533.401l-0.15-20.826l-7.469-0.287L412.211,512
			v-1.437v-1.437l16.66-0.152l16.662-0.154l0.678,0.928l0.68,0.928l-0.311,0.805l-0.309,0.807h-7.135h-7.133l-0.561,1.474
			l-0.561,1.474v19.496v19.496h-1.717h-1.717L427.299,533.401L427.299,533.401z M457.002,553.518
			c-0.154-0.402-0.213-10.555-0.129-22.561l0.15-21.83H471.1h14.074v1.437V512l-11.939,0.154l-11.939,0.156l-0.605,1.568
			l-0.607,1.568l0.203,6.155l0.201,6.155l0.738,0.738l0.736,0.739l8.16,0.287l8.158,0.287l0.184,1.58l0.182,1.579h-8.67h-8.672
			l-0.559,1.475l-0.561,1.474v5.958v5.957l0.555,1.462l0.557,1.462l11.939,0.155l11.939,0.155v1.437v1.437l-13.945,0.154
			l-13.945,0.153L457.002,553.518L457.002,553.518z M160.426,459.288l0.147-39.211l3.587-0.171l3.586-0.171l8.959,13.672
			c4.927,7.52,14.43,22,21.117,32.178l12.159,18.506l0.287-32.007l0.287-32.008h3.734h3.734l0.147,39.211l0.148,39.21l-4.169-0.02
			l-4.169-0.021l-7.259-11.326c-3.992-6.229-12.15-18.823-18.128-27.987s-12.127-18.806-13.665-21.428
			c-1.538-2.621-3.01-4.898-3.273-5.06l-0.477-0.295v33.068v33.068h-3.451h-3.451L160.426,459.288L160.426,459.288z
			 M237.411,459.288l0.148-39.211h23.268h23.268l0.17,3.878l0.17,3.878H264.99h-19.445l-0.689,0.689l-0.689,0.689v11.88v11.879
			l0.765,0.635l0.765,0.635l14.603,0.154l14.604,0.154v3.734v3.734l-14.604,0.152l-14.603,0.154l-0.765,0.635l-0.765,0.635v12.742
			v12.74l0.689,0.689l0.689,0.689h19.418h19.418v4.021v4.021h-23.559h-23.559L237.411,459.288L237.411,459.288z M322.372,497.725
			c-0.353-0.426-1.641-3.594-2.861-7.038c-3.496-9.868-22.821-62.808-24.157-66.178c-0.663-1.67-1.205-3.427-1.205-3.904v-0.867
			l3.842,0.169l3.842,0.17l2.98,8.043c3.161,8.532,7.44,20.244,13.751,37.631c2.121,5.846,4.371,11.896,5,13.445
			c0.629,1.551,1.484,3.953,1.902,5.342c0.418,1.387,1.071,2.898,1.452,3.357l0.693,0.836h1.354h1.355l0.337-1.58
			c0.368-1.73,1.941-6.191,6.896-19.551l3.255-8.777l-0.279-1.563c-0.153-0.86-1.18-4.02-2.279-7.021
			c-1.1-3.001-3.974-10.849-6.388-17.438l-4.387-11.98l0.318-0.515l0.318-0.515h2.791c1.536,0,3.175,0.147,3.643,0.327l0.852,0.327
			l2.992,8.147c1.646,4.481,3.836,10.327,4.866,12.991l1.873,4.842l0.579-1.108c0.318-0.61,1.771-4.599,3.228-8.864
			c1.457-4.266,3.373-9.695,4.257-12.065l1.608-4.309h4.001h4.001l-0.138,0.699c-0.136,0.69-3.299,9.375-10.084,27.679l-3.491,9.418
			l0.956,2.646c0.526,1.455,2.986,8.189,5.467,14.965l4.51,12.318l0.995,0.608l0.995,0.608l1.015-1.236l1.016-1.235l1.597-4.509
			c0.878-2.48,3.103-8.646,4.944-13.703c1.841-5.055,4.9-13.457,6.796-18.672c1.896-5.213,5.119-14.003,7.158-19.533l3.711-10.054
			l3.793-0.17l3.795-0.169v0.928c0,0.511-1.199,4.207-2.664,8.213c-3.037,8.307-6.014,16.497-7.973,21.936
			c-3.256,9.041-6.107,16.82-13.792,37.631l-3.607,9.766l-5.975,0.162l-5.976,0.162l-4.219-11.652
			c-2.321-6.408-4.765-12.885-5.43-14.39l-1.211-2.737l-4.791,13.078c-2.636,7.193-5.021,13.661-5.302,14.372l-0.511,1.292h-5.688
			h-5.687L322.372,497.725L322.372,497.725z M11.529,453.897l-1.19-1.514v-18.284v-18.284l1.574-1.459l1.574-1.459h18.196h18.195
			l1.487,1.768l1.488,1.768v17.722v17.722l-1.488,1.768l-1.487,1.768H31.299H12.72L11.529,453.897L11.529,453.897z M105.808,454.08
			l-1.249-1.33v-18.736v-18.737l1.514-1.191l1.514-1.19h17.752h17.753l1.416,0.928l1.416,0.928v19.139v19.139l-1.514,1.189
			l-1.514,1.191h-17.92h-17.919L105.808,454.08z M106.426,361.196l-1.867-1.139V341.09v-18.967l1.149-1.149l1.149-1.149h18.276
			h18.276l1.257,1.171l1.257,1.172v18.945v18.945l-1.867,1.139l-1.867,1.139h-16.948h-16.948L106.426,361.196z"/>
		<path id="path3024" fill="#221E1F" d="M234.06,553.668l-3.396-1.709l-1.332-2.352l-1.332-2.351l0.684-0.824l0.684-0.823h1.04h1.04
			l0.354,1.113l0.353,1.113l1.971,1.73l1.971,1.73l2.06,0.387l2.06,0.387l2.29-1.033l2.29-1.032l1.695-1.931l1.695-1.931v-3.311
			v-3.311l-2.154-2.099l-2.155-2.1l-5.523-2.613c-3.038-1.438-6.212-3.154-7.054-3.816l-1.53-1.204l-1.133-2.222l-1.133-2.221
			l0.006-2.752l0.006-2.752l1.354-2.872l1.354-2.872l1.377-1.149c0.758-0.632,2.352-1.602,3.543-2.154l2.167-1.005h3.075h3.076
			l2.778,1.867l2.779,1.867l1.308,1.951c1.603,2.392,1.616,2.727,0.143,3.515l-1.165,0.624l-2.139-2.385l-2.138-2.385l-1.551-0.805
			l-1.551-0.804h-1.927h-1.927l-2.628,1.667l-2.629,1.668l-1.016,2.66l-1.016,2.66l0.724,2.416l0.724,2.414l1.87,1.764l1.87,1.764
			l4.529,1.939c2.491,1.064,5.537,2.602,6.77,3.414l2.24,1.477l1.096,2.01l1.096,2.012l-0.178,4.401l-0.178,4.401l-1.75,2.205
			l-1.75,2.205l-3.09,1.58l-3.09,1.58h-2.104h-2.103L234.06,553.668L234.06,553.668z M377.454,554.125l-3.16-1.191l-2.011-1.484
			c-2.481-1.832-2.958-2.434-5.147-6.495l-1.746-3.24v-16.116v-16.115l0.6-0.371l0.6-0.371l0.803,0.667l0.803,0.666l0.178,15.326
			l0.178,15.326l1.067,2.011c0.587,1.105,2.13,3.111,3.429,4.458l2.359,2.447l3.057,1.144l3.057,1.144h1.967h1.969l3.057-1.144
			l3.057-1.144l2.338-2.447c1.285-1.347,2.764-3.087,3.285-3.868l0.945-1.42v-15.889v-15.889l0.834-0.691l0.836-0.692l1.031,0.198
			l1.033,0.199l0.172,14.068l0.172,14.067l-0.648,3.447l-0.648,3.446l-2.043,2.992l-2.045,2.992l-2.291,1.517
			c-1.26,0.834-3.721,2.009-5.469,2.609l-3.178,1.093l-2.639-0.029l-2.639-0.029L377.454,554.125L377.454,554.125z M160.689,553.864
			l-0.403-0.402v-21.666V510.13l0.886-0.735l0.886-0.736l0.557,0.558l0.557,0.558l-0.15,22.075l-0.15,22.075l-0.89,0.172
			C161.493,554.19,160.911,554.085,160.689,553.864L160.689,553.864z M178.962,552.971l-0.324-1.33l0.16-21.256l0.16-21.258h2.011
			h2.011l13.214,19.82l13.214,19.821l0.287-19.821l0.288-19.82l1.272-0.181l1.272-0.181l0.324,1.33l0.324,1.33l-0.16,21.256
			l-0.16,21.258l-2.011,0.15l-2.011,0.149l-0.576-0.437c-0.621-0.473-1.034-1.084-8.634-12.79
			c-2.769-4.266-6.378-9.824-8.021-12.353c-1.643-2.527-4.383-6.922-6.091-9.766l-3.106-5.172l-0.287,20.109l-0.287,20.107
			l-1.272,0.181l-1.272,0.181L178.962,552.971z M277.758,553.508c-0.147-0.395-0.333-9.766-0.413-20.826l-0.145-20.107l-7.28-0.287
			l-7.28-0.287l-0.456-0.459l-0.456-0.458l0.617-0.978l0.617-0.979h16.311h16.311l0.182,1.58l0.182,1.58h-6.818h-6.817l-0.689,0.689
			l-0.689,0.689v19.371v19.372l-0.349,0.909l-0.349,0.908h-1.105h-1.105L277.758,553.508L277.758,553.508z M307.19,553.864
			l-0.402-0.402v-21.666V510.13l0.886-0.735l0.887-0.736l0.557,0.558l0.558,0.558l-0.151,22.075l-0.15,22.075l-0.89,0.172
			C307.994,554.19,307.412,554.085,307.19,553.864L307.19,553.864z M336.375,553.551c-0.156-0.418-0.35-9.809-0.43-20.869
			l-0.145-20.107l-7.648-0.16l-7.649-0.161l0.181-1.563l0.18-1.562h16.661h16.661l0.182,1.58l0.182,1.58h-7.186h-7.186l-0.465,0.718
			l-0.465,0.718l-0.287,20.102l-0.287,20.1l-1.008,0.193l-1.007,0.194L336.375,553.551L336.375,553.551z M427.299,533.401
			l-0.15-20.826l-7.279-0.287L412.59,512l-0.457-0.459l-0.455-0.458l0.617-0.978l0.615-0.979h16.6h16.598l0.182,1.58l0.182,1.58
			h-7.104h-7.105l-0.689,0.689l-0.689,0.689v19.371v19.372l-0.35,0.909l-0.348,0.908h-1.367h-1.369L427.299,533.401L427.299,533.401
			z M457.129,553.854l-0.393-0.393v-21.666V510.13l0.789-0.655l0.791-0.656l13.08,0.154l13.078,0.154l0.637,1.021l0.637,1.022
			l-0.861,0.55l-0.861,0.549l-11.275,0.009l-11.277,0.009l-0.691,0.834l-0.693,0.834l0.191,7.164l0.191,7.162l0.477,0.477
			l0.477,0.478l8.428,0.288l8.428,0.287l0.184,1.58l0.182,1.579h-8.541h-8.541l-0.689,0.689l-0.689,0.689v7.526v7.525l0.689,0.689
			l0.689,0.689l11.23,0.01l11.232,0.008l0.775,0.492l0.773,0.49l-0.207,1.08l-0.207,1.08l-13.82,0.154l-13.818,0.153
			L457.129,553.854L457.129,553.854z M160.426,459.288l0.147-39.21l3.51-0.169l3.509-0.169l21.195,32.334l21.195,32.335
			l0.299-32.166c0.165-17.691,0.358-32.243,0.431-32.337c0.072-0.094,1.748-0.094,3.722,0l3.591,0.171l0.147,39.21l0.148,39.21
			H214.1h-4.221l-0.589-1.292c-0.324-0.711-4.318-6.98-8.875-13.933c-7.277-11.1-16.829-25.729-21.17-32.422
			c-0.79-1.219-3.763-6.042-6.607-10.719l-5.17-8.504l-0.148,33.436l-0.148,33.434h-3.446h-3.446L160.426,459.288L160.426,459.288z
			 M237.411,459.288l0.148-39.21h23.268h23.268l0.169,3.87l0.17,3.871l-19.991,0.151l-19.99,0.151l-0.163,11.778l-0.163,11.777
			l0.317,1.293l0.317,1.293h14.865h14.865l0.349,0.908c0.333,0.869,0.504,6.43,0.205,6.68c-0.079,0.065-6.995,0.26-15.368,0.431
			l-15.225,0.312v13.788v13.788l19.964,0.151l19.964,0.151v4.014v4.014h-23.559h-23.559L237.411,459.288L237.411,459.288z
			 M322.771,497.8l-0.949-0.737l-0.937-2.873c-0.516-1.58-2.316-6.621-4.001-11.203s-4.613-12.596-6.509-17.81
			c-9.251-25.448-10.751-29.553-13.419-36.71l-2.869-7.697l0.521-0.521l0.521-0.521l3.355,0.175l3.355,0.175l1.651,4.596
			c0.908,2.528,2.417,6.794,3.353,9.479c0.936,2.686,1.946,5.4,2.244,6.033c0.729,1.541,5.742,15.553,5.742,16.047
			c0,0.215,0.481,1.475,1.07,2.8s1.722,4.22,2.519,6.433c0.796,2.211,2.619,7.252,4.051,11.202s2.786,7.828,3.01,8.618
			c0.526,1.856,1.378,2.893,2.832,3.445l1.169,0.443l0.718-0.578l0.719-0.579v-1.296c0-1.238,0.827-3.623,2.621-7.555
			c0.454-0.996,0.825-2.041,0.825-2.322s1.558-4.62,3.46-9.641l3.459-9.129l-4.352-11.816c-2.393-6.5-5.489-14.898-6.881-18.665
			l-2.529-6.847l0.296-0.479l0.296-0.478h3.112h3.112l0.843,1.293c0.857,1.314,8.255,20.897,8.794,23.276
			c0.161,0.715,0.539,1.452,0.838,1.637l0.544,0.337l0.29-0.29c0.159-0.158,1.412-3.609,2.784-7.67
			c4.056-12.001,5.504-15.922,6.385-17.291l0.833-1.292h3.338c1.836,0,3.494,0.156,3.684,0.346l0.346,0.346l-0.788,1.809
			c-0.434,0.995-1.486,3.748-2.34,6.117c-0.853,2.37-2.032,5.394-2.621,6.719s-1.07,2.632-1.07,2.902
			c0,0.271-1.551,4.602-3.447,9.625l-3.447,9.133v1.335v1.336l1.668,4.151c0.918,2.284,3.274,8.548,5.238,13.92l3.57,9.766
			l0.75,0.797l0.749,0.797l0.936-0.359l0.937-0.358l1.166-2.735c0.643-1.505,1.534-3.551,1.981-4.547
			c0.448-0.995,0.815-1.996,0.815-2.225c0-0.598,5.062-14.584,6.056-16.734c0.461-0.995,0.838-1.996,0.838-2.225
			c0-0.598,5.062-14.584,6.057-16.734c0.461-0.995,0.838-1.996,0.838-2.225c0-0.445,4.863-14.159,5.701-16.073
			c0.275-0.632,0.818-1.989,1.205-3.016l0.701-1.867h3.664h3.666v0.699c0,0.384-0.373,1.742-0.826,3.016
			c-1.502,4.209-7.656,21.065-12.646,34.632c-2.701,7.346-4.922,13.55-4.932,13.788c-0.012,0.238-0.52,1.467-1.129,2.73
			c-0.611,1.264-1.119,2.523-1.131,2.801c-0.02,0.525-4.85,14.168-5.72,16.158c-0.276,0.633-0.818,1.989-1.205,3.016l-0.702,1.867
			l-5.818-0.006l-5.819-0.008l-3.98-11.052c-2.188-6.079-4.702-12.862-5.585-15.074l-1.605-4.021l-0.017,0.935
			c-0.009,0.515-1.854,5.814-4.103,11.777c-2.248,5.965-4.525,12.266-5.061,14.003l-0.973,3.159l-5.433,0.164l-5.433,0.162
			L322.771,497.8L322.771,497.8z M11.631,453.51l-1.292-1.905V433.93v-17.675l1.679-1.679l1.679-1.679h17.878h17.878l1.047,1.005
			c0.576,0.553,1.341,1.57,1.699,2.26l0.653,1.255v16.901v16.901l-1.315,1.951l-1.315,1.953l-18.649,0.145l-18.649,0.146
			L11.631,453.51z M105.749,453.897l-1.191-1.514V434.05v-18.333l1.41-1.41l1.41-1.41l17.98,0.019l17.979,0.019l1.293,1.079
			l1.292,1.078v18.389v18.389l-0.357,0.93l-0.357,0.93l-1.625,0.841l-1.625,0.841h-17.51h-17.51L105.749,453.897L105.749,453.897z
			 M106.848,361.265l-2.001-1.073l-0.161-18.316c-0.088-10.074-0.03-18.854,0.13-19.511l0.29-1.194l1.478-0.673l1.477-0.673h17.418
			h17.418l1.514,1.19l1.514,1.191v18.295v18.296l-0.357,0.93l-0.357,0.93l-1.625,0.84l-1.625,0.84h-16.555H108.85L106.848,361.265z"
			/>
	</g>
</g>
</svg>
